<?xml version="1.0" encoding="UTF-8" standalone="no"?>
<!-- Created with Inkscape (http://www.inkscape.org/) -->

<svg
   width="281.49741mm"
   height="42.672096mm"
   viewBox="0 0 281.4974 42.672096"
   version="1.1"
   id="svg5"
   sodipodi:docname="CLIC_frase.svg"
   inkscape:version="1.1.2 (b8e25be833, 2022-02-05)"
   xmlns:inkscape="http://www.inkscape.org/namespaces/inkscape"
   xmlns:sodipodi="http://sodipodi.sourceforge.net/DTD/sodipodi-0.dtd"
   xmlns="http://www.w3.org/2000/svg"
   xmlns:svg="http://www.w3.org/2000/svg">
  <sodipodi:namedview
     id="namedview7"
     pagecolor="#ffffff"
     bordercolor="#666666"
     borderopacity="1.0"
     inkscape:pageshadow="2"
     inkscape:pageopacity="0.0"
     inkscape:pagecheckerboard="0"
     inkscape:document-units="mm"
     showgrid="false"
     inkscape:zoom="0.77593294"
     inkscape:cx="451.71429"
     inkscape:cy="239.71144"
     inkscape:window-width="1920"
     inkscape:window-height="1057"
     inkscape:window-x="-8"
     inkscape:window-y="-8"
     inkscape:window-maximized="1"
     inkscape:current-layer="layer1"
     fit-margin-top="0"
     fit-margin-left="0"
     fit-margin-right="0"
     fit-margin-bottom="0" />
  <defs
     id="defs2">
    <rect
       x="-122.43326"
       y="-104.39046"
       width="1388.0065"
       height="471.69025"
       id="rect8631" />
  </defs>
  <g
     inkscape:label="Layer 1"
     inkscape:groupmode="layer"
     id="layer1"
     transform="translate(-638.09382,103.04065)">
    <g
       aria-label="Transforme o currículo a partir da
computação"
       id="text4449"
       style="font-size:19.7556px;line-height:1.25;font-family:NHaasGroteskDSPro-65Md;-inkscape-font-specification:NHaasGroteskDSPro-65Md;stroke-width:0.264583">
      <path
         d="m 638.09382,-102.98138 h 11.35947 v 2.41018 h -4.24745 v 11.715075 h -2.86456 V -100.5712 h -4.24746 z"
         id="path9386" />
      <path
         d="m 651.88324,-97.370788 h 0.0593 q 0.45438,-0.869247 1.0273,-1.30387 0.57291,-0.434623 1.46191,-0.434623 0.41487,0 0.63218,0.07902 v 2.350917 h -0.0593 q -1.32362,-0.13829 -2.17311,0.572912 -0.84949,0.711202 -0.84949,2.311405 v 4.9389 h -2.68677 v -10.134623 h 2.58799 z"
         id="path9388" />
      <path
         d="m 662.3142,-88.856125 q -0.11853,-0.158045 -0.19755,-0.474134 -0.079,-0.31609 -0.11854,-0.651935 h -0.0395 q -0.19755,0.296334 -0.45438,0.553157 -0.23706,0.237067 -0.59266,0.414867 -0.33585,0.177801 -0.80998,0.276579 -0.47414,0.118533 -1.12607,0.118533 -1.5607,0 -2.54848,-0.790224 -0.98778,-0.790224 -0.98778,-2.311405 0,-0.829735 0.31609,-1.402647 0.31609,-0.572913 0.86925,-0.948269 0.55316,-0.375357 1.28411,-0.572913 0.75072,-0.217311 1.60021,-0.335845 1.26436,-0.1778 1.85702,-0.375356 0.59267,-0.197556 0.59267,-0.770469 0,-0.553156 -0.43462,-0.869246 -0.41487,-0.335845 -1.26436,-0.335845 -0.94827,0 -1.4224,0.355601 -0.47414,0.335845 -0.5334,1.066802 h -2.39043 q 0.0197,-0.67169 0.29633,-1.264358 0.27658,-0.612424 0.80998,-1.066803 0.5334,-0.454379 1.34338,-0.730957 0.80998,-0.276578 1.9163,-0.276578 2.27189,0 3.25967,0.98778 1.00754,0.968024 1.00754,2.746028 v 5.156212 q 0,1.145824 0.3556,1.402647 v 0.09878 z m -2.68676,-1.639715 q 0.57291,0 1.00754,-0.158044 0.45438,-0.177801 0.75071,-0.434624 0.31609,-0.276578 0.47413,-0.612423 0.15805,-0.355601 0.15805,-0.730957 v -1.521182 q -0.3556,0.217312 -0.86925,0.355601 -0.49389,0.118534 -1.00753,0.237067 -1.06681,0.237068 -1.58045,0.553157 -0.51365,0.31609 -0.51365,1.027291 0,0.711202 0.43463,1.007536 0.43462,0.276578 1.14582,0.276578 z"
         id="path9390" />
      <path
         d="m 668.87305,-97.607856 h 0.0593 q 0.51364,-0.829735 1.22484,-1.244602 0.73096,-0.414868 1.77801,-0.414868 0.79022,0 1.4224,0.296334 0.65194,0.276578 1.10631,0.790224 0.45438,0.49389 0.71121,1.185336 0.25682,0.691446 0.25682,1.521181 v 6.618126 h -2.68676 v -6.223014 q 0,-0.829735 -0.45438,-1.343381 -0.45438,-0.513645 -1.30387,-0.513645 -0.889,0 -1.48167,0.651935 -0.57291,0.632179 -0.57291,1.679226 v 5.748879 h -2.68677 v -10.134623 h 2.6275 z"
         id="path9392" />
      <path
         d="m 681.20054,-88.559791 q -2.21263,0 -3.41772,-0.968024 -1.20509,-0.98778 -1.32362,-2.607739 h 2.4892 q 0.13829,0.889002 0.7112,1.284114 0.59267,0.395112 1.50143,0.395112 0.889,0 1.36314,-0.31609 0.49389,-0.31609 0.49389,-0.849491 0,-0.355601 -0.23707,-0.572912 -0.21731,-0.217312 -0.59267,-0.355601 -0.3556,-0.138289 -0.84949,-0.217312 -0.47413,-0.09878 -0.98778,-0.197556 -0.69145,-0.138289 -1.34338,-0.316089 -0.63218,-0.177801 -1.14583,-0.513646 -0.49389,-0.335845 -0.80997,-0.869246 -0.29634,-0.533401 -0.29634,-1.363137 0,-0.829735 0.31609,-1.422403 0.31609,-0.612423 0.86925,-1.007535 0.57291,-0.414868 1.32362,-0.612424 0.75072,-0.197556 1.61996,-0.197556 2.01507,0 3.10163,0.908758 1.08656,0.908757 1.2446,2.449694 h -2.42994 q -0.0988,-0.829735 -0.59266,-1.145825 -0.49389,-0.335845 -1.36314,-0.335845 -0.79022,0 -1.26436,0.296334 -0.47413,0.276578 -0.47413,0.829735 0,0.335845 0.23706,0.533401 0.23707,0.177801 0.61243,0.31609 0.39511,0.118534 0.889,0.197556 0.51365,0.07902 1.04705,0.197556 0.63218,0.138289 1.26436,0.31609 0.65193,0.1778 1.16558,0.533401 0.51364,0.335845 0.82973,0.908757 0.31609,0.553157 0.31609,1.442159 0,0.770469 -0.31609,1.382892 -0.31609,0.592668 -0.889,1.007536 -0.55316,0.414867 -1.34338,0.632179 -0.77047,0.237067 -1.71874,0.237067 z"
         id="path9394" />
      <path
         d="m 685.88262,-98.990748 h 1.3829 v -0.908757 q 0,-0.928515 0.33584,-1.560695 0.33585,-0.63218 0.92851,-0.98778 0.61243,-0.37535 1.44216,-0.49389 0.82974,-0.11853 1.79776,-0.0198 v 2.07433 q -0.94827,-0.0395 -1.38289,0.15805 -0.43462,0.19756 -0.43462,0.98778 v 0.750712 h 1.81751 v 1.857027 h -1.81751 v 8.277596 h -2.68676 v -8.277596 h -1.3829 z"
         id="path9396" />
      <path
         d="m 697.49893,-88.559791 q -1.18534,0 -2.15336,-0.414867 -0.96803,-0.414868 -1.67923,-1.12607 -0.69144,-0.730957 -1.08656,-1.698981 -0.37535,-0.98778 -0.37535,-2.113849 0,-1.12607 0.37535,-2.094094 0.39512,-0.98778 1.08656,-1.698982 0.7112,-0.730957 1.67923,-1.145824 0.96802,-0.414868 2.15336,-0.414868 1.18533,0 2.15336,0.414868 0.96802,0.414867 1.65947,1.145824 0.7112,0.711202 1.08656,1.698982 0.39511,0.968024 0.39511,2.094094 0,1.126069 -0.39511,2.113849 -0.37536,0.968024 -1.08656,1.698981 -0.69145,0.711202 -1.65947,1.12607 -0.96803,0.414867 -2.15336,0.414867 z m 0,-2.054582 q 1.2446,0 1.89654,-0.908758 0.67169,-0.908757 0.67169,-2.390427 0,-1.48167 -0.67169,-2.390428 -0.65194,-0.928513 -1.89654,-0.928513 -1.2446,0 -1.91629,0.928513 -0.65194,0.908758 -0.65194,2.390428 0,1.48167 0.65194,2.390427 0.67169,0.908758 1.91629,0.908758 z"
         id="path9398" />
      <path
         d="m 706.626,-97.370788 h 0.0593 q 0.45438,-0.869247 1.02729,-1.30387 0.57291,-0.434623 1.46191,-0.434623 0.41487,0 0.63218,0.07902 v 2.350917 h -0.0593 q -1.32362,-0.13829 -2.17311,0.572912 -0.84949,0.711202 -0.84949,2.311405 v 4.9389 h -2.68676 v -10.134623 h 2.58798 z"
         id="path9400" />
      <path
         d="m 710.97223,-98.990748 h 2.58798 v 1.363137 h 0.0593 q 0.41487,-0.691446 1.14582,-1.165581 0.73096,-0.474134 1.79776,-0.474134 0.96803,0 1.69898,0.49389 0.73096,0.474134 1.10632,1.284114 h 0.0395 q 0.51364,-0.829735 1.28411,-1.30387 0.79023,-0.474134 1.75825,-0.474134 1.60021,0 2.46945,0.968024 0.86925,0.948269 0.86925,2.627495 v 6.815682 h -2.68676 v -6.361303 q 0,-0.869246 -0.41487,-1.30387 -0.39511,-0.434623 -1.14583,-0.434623 -0.84949,0 -1.34338,0.612424 -0.47413,0.592668 -0.47413,1.600203 v 5.887169 h -2.68676 v -6.361303 q 0,-0.869246 -0.41487,-1.30387 -0.39511,-0.434623 -1.14583,-0.434623 -0.82973,0 -1.32362,0.612424 -0.49389,0.592668 -0.49389,1.600203 v 5.887169 h -2.68676 z"
         id="path9402" />
      <path
         d="m 732.20949,-88.559791 q -1.26436,0 -2.25214,-0.414867 -0.96802,-0.414868 -1.63971,-1.12607 -0.67169,-0.730957 -1.02729,-1.718737 -0.33585,-0.98778 -0.33585,-2.113849 0,-1.126069 0.3556,-2.094094 0.37536,-0.98778 1.0273,-1.698981 0.67169,-0.711202 1.58044,-1.126069 0.92852,-0.414868 2.03483,-0.414868 1.22485,0 2.15336,0.454379 0.92851,0.434623 1.56069,1.244603 0.63218,0.809979 0.94827,1.936048 0.33585,1.106314 0.33585,2.46945 h -7.34909 q 0.15805,1.185336 0.79023,1.857027 0.65193,0.67169 1.79776,0.67169 0.79022,0 1.26436,-0.335845 0.47413,-0.335845 0.69144,-0.908758 h 2.64725 q -0.13829,0.671691 -0.51364,1.284114 -0.3556,0.592668 -0.94827,1.047047 -0.57291,0.454379 -1.36314,0.711202 -0.79022,0.276578 -1.75825,0.276578 z m -0.21731,-8.633197 q -1.0668,0 -1.61996,0.592668 -0.55315,0.572912 -0.73095,1.580448 h 4.50427 q -0.0593,-0.968024 -0.65193,-1.560692 -0.57292,-0.612424 -1.50143,-0.612424 z"
         id="path9404" />
      <path
         d="m 746.31499,-88.559791 q -1.18533,0 -2.15336,-0.414867 -0.96802,-0.414868 -1.67923,-1.12607 -0.69144,-0.730957 -1.08655,-1.698981 -0.37536,-0.98778 -0.37536,-2.113849 0,-1.12607 0.37536,-2.094094 0.39511,-0.98778 1.08655,-1.698982 0.71121,-0.730957 1.67923,-1.145824 0.96803,-0.414868 2.15336,-0.414868 1.18534,0 2.15336,0.414868 0.96803,0.414867 1.65947,1.145824 0.7112,0.711202 1.08656,1.698982 0.39511,0.968024 0.39511,2.094094 0,1.126069 -0.39511,2.113849 -0.37536,0.968024 -1.08656,1.698981 -0.69144,0.711202 -1.65947,1.12607 -0.96802,0.414867 -2.15336,0.414867 z m 0,-2.054582 q 1.2446,0 1.89654,-0.908758 0.67169,-0.908757 0.67169,-2.390427 0,-1.48167 -0.67169,-2.390428 -0.65194,-0.928513 -1.89654,-0.928513 -1.2446,0 -1.91629,0.928513 -0.65194,0.908758 -0.65194,2.390428 0,1.48167 0.65194,2.390427 0.67169,0.908758 1.91629,0.908758 z"
         id="path9406" />
      <path
         d="m 760.87484,-88.559791 q -1.20509,0 -2.17311,-0.414867 -0.94827,-0.414868 -1.61996,-1.12607 -0.67169,-0.730957 -1.04705,-1.698981 -0.3556,-0.98778 -0.3556,-2.113849 0,-1.12607 0.3556,-2.094094 0.3556,-0.98778 1.00754,-1.698982 0.67169,-0.730957 1.6002,-1.145824 0.92851,-0.414868 2.09409,-0.414868 0.98778,0 1.77801,0.276578 0.79022,0.276579 1.36313,0.770469 0.59267,0.474134 0.94827,1.16558 0.37536,0.671691 0.51365,1.501426 h -2.6275 q -0.13828,-0.671691 -0.63217,-1.106314 -0.47414,-0.454379 -1.22485,-0.454379 -1.22485,0 -1.83727,0.869247 -0.61243,0.849491 -0.61243,2.331161 0,1.442158 0.57292,2.33116 0.59266,0.869247 1.83727,0.869247 0.82973,0 1.36313,-0.414868 0.5334,-0.434623 0.67169,-1.303869 h 2.58799 q -0.0593,0.809979 -0.41487,1.521181 -0.33585,0.691446 -0.92851,1.224847 -0.57292,0.513646 -1.40265,0.829735 -0.80998,0.296334 -1.81752,0.296334 z"
         id="path9408" />
      <path
         d="m 773.00478,-88.856125 v -1.185336 h -0.0593 q -0.51364,0.691446 -1.18533,1.086558 -0.65194,0.375357 -1.71874,0.375357 -1.69898,0 -2.60774,-0.98778 -0.90876,-0.98778 -0.90876,-2.667006 v -6.756416 h 2.66701 v 6.302037 q 0,0.889002 0.39511,1.363136 0.41487,0.474135 1.28411,0.474135 0.94827,0 1.48167,-0.63218 0.55316,-0.651934 0.55316,-1.65947 v -5.847658 h 2.68676 v 10.134623 z"
         id="path9410" />
      <path
         d="m 779.91922,-97.370788 h 0.0593 q 0.45438,-0.869247 1.02729,-1.30387 0.57291,-0.434623 1.46191,-0.434623 0.41487,0 0.63218,0.07902 v 2.350917 h -0.0593 q -1.32363,-0.13829 -2.17312,0.572912 -0.84949,0.711202 -0.84949,2.311405 v 4.9389 h -2.68676 v -10.134623 h 2.58798 z"
         id="path9412" />
      <path
         d="m 786.85344,-97.370788 h 0.0593 q 0.45438,-0.869247 1.02729,-1.30387 0.57291,-0.434623 1.46191,-0.434623 0.41487,0 0.63218,0.07902 v 2.350917 h -0.0593 q -1.32362,-0.13829 -2.17311,0.572912 -0.84949,0.711202 -0.84949,2.311405 v 4.9389 h -2.68676 v -10.134623 h 2.58798 z"
         id="path9414" />
      <path
         d="m 791.19966,-98.990748 h 2.68676 v 10.134623 h -2.68676 z m 2.37067,-1.264362 h -2.09409 l 1.08656,-2.78554 h 3.14114 z"
         id="path9416" />
      <path
         d="m 800.32677,-88.559791 q -1.20509,0 -2.17312,-0.414867 -0.94826,-0.414868 -1.61995,-1.12607 -0.67169,-0.730957 -1.04705,-1.698981 -0.3556,-0.98778 -0.3556,-2.113849 0,-1.12607 0.3556,-2.094094 0.3556,-0.98778 1.00753,-1.698982 0.67169,-0.730957 1.60021,-1.145824 0.92851,-0.414868 2.09409,-0.414868 0.98778,0 1.77801,0.276578 0.79022,0.276579 1.36313,0.770469 0.59267,0.474134 0.94827,1.16558 0.37536,0.671691 0.51365,1.501426 h -2.6275 q -0.13829,-0.671691 -0.63218,-1.106314 -0.47413,-0.454379 -1.22484,-0.454379 -1.22485,0 -1.83728,0.869247 -0.61242,0.849491 -0.61242,2.331161 0,1.442158 0.57291,2.33116 0.59267,0.869247 1.83727,0.869247 0.82974,0 1.36314,-0.414868 0.5334,-0.434623 0.67169,-1.303869 h 2.58798 q -0.0593,0.809979 -0.41486,1.521181 -0.33585,0.691446 -0.92852,1.224847 -0.57291,0.513646 -1.40264,0.829735 -0.80998,0.296334 -1.81752,0.296334 z"
         id="path9418" />
      <path
         d="m 812.45671,-88.856125 v -1.185336 h -0.0593 q -0.51365,0.691446 -1.18534,1.086558 -0.65193,0.375357 -1.71873,0.375357 -1.69899,0 -2.60774,-0.98778 -0.90876,-0.98778 -0.90876,-2.667006 v -6.756416 h 2.66701 v 6.302037 q 0,0.889002 0.39511,1.363136 0.41487,0.474135 1.28411,0.474135 0.94827,0 1.48167,-0.63218 0.55316,-0.651934 0.55316,-1.65947 v -5.847658 h 2.68676 v 10.134623 z"
         id="path9420" />
      <path
         d="m 816.82268,-102.98138 h 2.68676 v 14.125255 h -2.68676 z"
         id="path9422" />
      <path
         d="m 826.08807,-88.559791 q -1.18534,0 -2.15336,-0.414867 -0.96802,-0.414868 -1.67923,-1.12607 -0.69144,-0.730957 -1.08655,-1.698981 -0.37536,-0.98778 -0.37536,-2.113849 0,-1.12607 0.37536,-2.094094 0.39511,-0.98778 1.08655,-1.698982 0.71121,-0.730957 1.67923,-1.145824 0.96802,-0.414868 2.15336,-0.414868 1.18534,0 2.15336,0.414868 0.96802,0.414867 1.65947,1.145824 0.7112,0.711202 1.08656,1.698982 0.39511,0.968024 0.39511,2.094094 0,1.126069 -0.39511,2.113849 -0.37536,0.968024 -1.08656,1.698981 -0.69145,0.711202 -1.65947,1.12607 -0.96802,0.414867 -2.15336,0.414867 z m 0,-2.054582 q 1.2446,0 1.89654,-0.908758 0.67169,-0.908757 0.67169,-2.390427 0,-1.48167 -0.67169,-2.390428 -0.65194,-0.928513 -1.89654,-0.928513 -1.2446,0 -1.91629,0.928513 -0.65194,0.908758 -0.65194,2.390428 0,1.48167 0.65194,2.390427 0.67169,0.908758 1.91629,0.908758 z"
         id="path9424" />
      <path
         d="m 842.32715,-88.856125 q -0.11854,-0.158045 -0.19756,-0.474134 -0.079,-0.31609 -0.11853,-0.651935 h -0.0395 q -0.19756,0.296334 -0.45438,0.553157 -0.23707,0.237067 -0.59267,0.414867 -0.33584,0.177801 -0.80998,0.276579 -0.47413,0.118533 -1.12607,0.118533 -1.56069,0 -2.54847,-0.790224 -0.98778,-0.790224 -0.98778,-2.311405 0,-0.829735 0.31609,-1.402647 0.31609,-0.572913 0.86925,-0.948269 0.55315,-0.375357 1.28411,-0.572913 0.75071,-0.217311 1.6002,-0.335845 1.26436,-0.1778 1.85703,-0.375356 0.59267,-0.197556 0.59267,-0.770469 0,-0.553156 -0.43463,-0.869246 -0.41486,-0.335845 -1.26435,-0.335845 -0.94827,0 -1.42241,0.355601 -0.47413,0.335845 -0.5334,1.066802 h -2.39043 q 0.0198,-0.67169 0.29634,-1.264358 0.27658,-0.612424 0.80998,-1.066803 0.5334,-0.454379 1.34338,-0.730957 0.80998,-0.276578 1.91629,-0.276578 2.2719,0 3.25968,0.98778 1.00753,0.968024 1.00753,2.746028 v 5.156212 q 0,1.145824 0.3556,1.402647 v 0.09878 z m -2.68676,-1.639715 q 0.57291,0 1.00753,-0.158044 0.45438,-0.177801 0.75072,-0.434624 0.31608,-0.276578 0.47413,-0.612423 0.15804,-0.355601 0.15804,-0.730957 v -1.521182 q -0.3556,0.217312 -0.86924,0.355601 -0.49389,0.118534 -1.00754,0.237067 -1.0668,0.237068 -1.58045,0.553157 -0.51364,0.31609 -0.51364,1.027291 0,0.711202 0.43462,1.007536 0.43463,0.276578 1.14583,0.276578 z"
         id="path9426" />
      <path
         d="m 849.57742,-98.990748 h 2.58799 v 1.264359 h 0.0593 q 0.49389,-0.671691 1.20509,-1.106314 0.73096,-0.434623 1.77801,-0.434623 1.00753,0 1.81751,0.395112 0.80998,0.395112 1.3829,1.106314 0.59266,0.691446 0.889,1.679226 0.31609,0.98778 0.31609,2.173116 0,1.224847 -0.31609,2.232382 -0.31609,0.98778 -0.90876,1.679226 -0.57291,0.691446 -1.38289,1.066803 -0.80998,0.375356 -1.77801,0.375356 -1.0668,0 -1.778,-0.395112 -0.7112,-0.395112 -1.14583,-1.047047 h -0.0395 v 4.464766 h -2.68676 z m 5.07719,8.198574 q 1.02729,0 1.61996,-0.790224 0.61242,-0.809979 0.61242,-2.252138 0,-1.442159 -0.55315,-2.350916 -0.5334,-0.908758 -1.77801,-0.908758 -0.63218,0 -1.08655,0.256823 -0.43463,0.256823 -0.73096,0.691446 -0.27658,0.434623 -0.41487,1.047047 -0.11853,0.592668 -0.11853,1.264358 0,1.382892 0.61242,2.212627 0.63218,0.829735 1.83727,0.829735 z"
         id="path9428" />
      <path
         d="m 867.23891,-88.856125 q -0.11854,-0.158045 -0.19756,-0.474134 -0.079,-0.31609 -0.11853,-0.651935 h -0.0395 q -0.19756,0.296334 -0.45438,0.553157 -0.23707,0.237067 -0.59267,0.414867 -0.33585,0.177801 -0.80998,0.276579 -0.47413,0.118533 -1.12607,0.118533 -1.56069,0 -2.54847,-0.790224 -0.98778,-0.790224 -0.98778,-2.311405 0,-0.829735 0.31609,-1.402647 0.31609,-0.572913 0.86924,-0.948269 0.55316,-0.375357 1.28412,-0.572913 0.75071,-0.217311 1.6002,-0.335845 1.26436,-0.1778 1.85703,-0.375356 0.59267,-0.197556 0.59267,-0.770469 0,-0.553156 -0.43463,-0.869246 -0.41486,-0.335845 -1.26436,-0.335845 -0.94826,0 -1.4224,0.355601 -0.47413,0.335845 -0.5334,1.066802 h -2.39043 q 0.0198,-0.67169 0.29634,-1.264358 0.27657,-0.612424 0.80998,-1.066803 0.5334,-0.454379 1.34338,-0.730957 0.80998,-0.276578 1.91629,-0.276578 2.27189,0 3.25967,0.98778 1.00754,0.968024 1.00754,2.746028 v 5.156212 q 0,1.145824 0.3556,1.402647 v 0.09878 z m -2.68676,-1.639715 q 0.57291,0 1.00753,-0.158044 0.45438,-0.177801 0.75071,-0.434624 0.31609,-0.276578 0.47414,-0.612423 0.15804,-0.355601 0.15804,-0.730957 v -1.521182 q -0.3556,0.217312 -0.86924,0.355601 -0.49389,0.118534 -1.00754,0.237067 -1.0668,0.237068 -1.58045,0.553157 -0.51364,0.31609 -0.51364,1.027291 0,0.711202 0.43462,1.007536 0.43462,0.276578 1.14583,0.276578 z"
         id="path9430" />
      <path
         d="m 873.75824,-97.370788 h 0.0593 q 0.45438,-0.869247 1.02729,-1.30387 0.57291,-0.434623 1.46191,-0.434623 0.41487,0 0.63218,0.07902 v 2.350917 h -0.0593 q -1.32362,-0.13829 -2.17311,0.572912 -0.84949,0.711202 -0.84949,2.311405 v 4.9389 h -2.68676 v -10.134623 h 2.58798 z"
         id="path9432" />
      <path
         d="m 877.61056,-98.990748 h 1.40265 v -3.160892 h 2.6275 v 3.160892 h 1.73849 v 1.778004 h -1.73849 v 5.373524 q 0,0.572912 0.27657,0.790224 0.27658,0.217311 0.73096,0.217311 h 0.51365 q 0.13829,0 0.27657,-0.01976 v 1.97556 q -0.19755,0.01975 -0.43462,0.01975 -0.21731,0.01976 -0.5334,0.01976 -0.31609,0 -0.7112,0 -0.49389,0 -0.98778,-0.09878 -0.47414,-0.118534 -0.86925,-0.395112 -0.39511,-0.276579 -0.65193,-0.750713 -0.23707,-0.474134 -0.23707,-1.185336 v -5.946436 h -1.40265 z"
         id="path9434" />
      <path
         d="m 884.76211,-98.990748 h 2.68677 v 10.134623 h -2.68677 z m 0,-3.990632 h 2.68677 v 2.41018 h -2.68677 z"
         id="path9436" />
      <path
         d="m 891.77536,-97.370788 h 0.0593 q 0.45438,-0.869247 1.02729,-1.30387 0.57291,-0.434623 1.46191,-0.434623 0.41487,0 0.63218,0.07902 v 2.350917 h -0.0593 q -1.32363,-0.13829 -2.17312,0.572912 -0.84949,0.711202 -0.84949,2.311405 v 4.9389 h -2.68676 v -10.134623 h 2.58798 z"
         id="path9438" />
      <path
         d="m 903.23361,-88.559791 q -0.94827,0 -1.73849,-0.375356 -0.79023,-0.375357 -1.36314,-1.066803 -0.55316,-0.691446 -0.86924,-1.679226 -0.31609,-1.007535 -0.31609,-2.232382 0,-1.185336 0.31609,-2.173116 0.31608,-0.98778 0.889,-1.679226 0.59267,-0.711202 1.38289,-1.106314 0.79022,-0.395112 1.73849,-0.395112 1.0668,0 1.75825,0.434623 0.69145,0.434623 1.10631,1.066803 h 0.0593 v -5.21548 h 2.68676 v 14.125255 h -2.58798 v -1.323625 h -0.0395 q -0.45438,0.730957 -1.20509,1.185336 -0.75072,0.434623 -1.81752,0.434623 z m 0.59267,-2.252138 q 1.20509,0 1.81751,-0.80998 0.61243,-0.829735 0.61243,-2.232383 0,-0.730957 -0.13829,-1.323625 -0.11854,-0.592668 -0.39511,-1.007535 -0.27658,-0.434624 -0.73096,-0.671691 -0.43462,-0.237067 -1.08656,-0.237067 -1.10631,0 -1.67922,0.889002 -0.55316,0.889002 -0.55316,2.29165 0,1.48167 0.55316,2.291649 0.55315,0.80998 1.6002,0.80998 z"
         id="path9440" />
      <path
         d="m 917.00323,-88.856125 q -0.11853,-0.158045 -0.19755,-0.474134 -0.079,-0.31609 -0.11853,-0.651935 h -0.0395 q -0.19755,0.296334 -0.45437,0.553157 -0.23707,0.237067 -0.59267,0.414867 -0.33585,0.177801 -0.80998,0.276579 -0.47414,0.118533 -1.12607,0.118533 -1.56069,0 -2.54847,-0.790224 -0.98778,-0.790224 -0.98778,-2.311405 0,-0.829735 0.31609,-1.402647 0.31609,-0.572913 0.86924,-0.948269 0.55316,-0.375357 1.28412,-0.572913 0.75071,-0.217311 1.6002,-0.335845 1.26436,-0.1778 1.85703,-0.375356 0.59266,-0.197556 0.59266,-0.770469 0,-0.553156 -0.43462,-0.869246 -0.41487,-0.335845 -1.26436,-0.335845 -0.94827,0 -1.4224,0.355601 -0.47414,0.335845 -0.5334,1.066802 h -2.39043 q 0.0198,-0.67169 0.29633,-1.264358 0.27658,-0.612424 0.80998,-1.066803 0.53341,-0.454379 1.34338,-0.730957 0.80998,-0.276578 1.9163,-0.276578 2.27189,0 3.25967,0.98778 1.00754,0.968024 1.00754,2.746028 v 5.156212 q 0,1.145824 0.3556,1.402647 v 0.09878 z m -2.68676,-1.639715 q 0.57292,0 1.00754,-0.158044 0.45438,-0.177801 0.75071,-0.434624 0.31609,-0.276578 0.47414,-0.612423 0.15804,-0.355601 0.15804,-0.730957 v -1.521182 q -0.3556,0.217312 -0.86925,0.355601 -0.49389,0.118534 -1.00753,0.237067 -1.0668,0.237068 -1.58045,0.553157 -0.51364,0.31609 -0.51364,1.027291 0,0.711202 0.43462,1.007536 0.43462,0.276578 1.14582,0.276578 z"
         id="path9442" />
      <path
         d="m 643.3093,-63.865291 q -1.20509,0 -2.17312,-0.414868 -0.94827,-0.414867 -1.61996,-1.126069 -0.67169,-0.730957 -1.04704,-1.698981 -0.3556,-0.98778 -0.3556,-2.11385 0,-1.126069 0.3556,-2.094093 0.3556,-0.98778 1.00753,-1.698982 0.67169,-0.730957 1.60021,-1.145824 0.92851,-0.414868 2.09409,-0.414868 0.98778,0 1.778,0.276578 0.79023,0.276579 1.36314,0.770469 0.59267,0.474134 0.94827,1.16558 0.37536,0.671691 0.51365,1.501426 h -2.6275 q -0.13829,-0.671691 -0.63218,-1.106314 -0.47413,-0.454379 -1.22485,-0.454379 -1.22484,0 -1.83727,0.869247 -0.61242,0.84949 -0.61242,2.33116 0,1.442159 0.57291,2.331161 0.59267,0.869247 1.83727,0.869247 0.82974,0 1.36314,-0.414868 0.5334,-0.434623 0.67169,-1.30387 h 2.58798 q -0.0593,0.80998 -0.41486,1.521182 -0.33585,0.691446 -0.92852,1.224847 -0.57291,0.513645 -1.40265,0.829735 -0.80997,0.296334 -1.81751,0.296334 z"
         id="path9444" />
      <path
         d="m 653.83903,-63.865291 q -1.18533,0 -2.15336,-0.414868 -0.96802,-0.414867 -1.67923,-1.126069 -0.69144,-0.730957 -1.08655,-1.698981 -0.37536,-0.98778 -0.37536,-2.11385 0,-1.126069 0.37536,-2.094093 0.39511,-0.98778 1.08655,-1.698982 0.71121,-0.730957 1.67923,-1.145824 0.96803,-0.414868 2.15336,-0.414868 1.18534,0 2.15336,0.414868 0.96803,0.414867 1.65947,1.145824 0.7112,0.711202 1.08656,1.698982 0.39511,0.968024 0.39511,2.094093 0,1.12607 -0.39511,2.11385 -0.37536,0.968024 -1.08656,1.698981 -0.69144,0.711202 -1.65947,1.126069 -0.96802,0.414868 -2.15336,0.414868 z m 0,-2.054582 q 1.2446,0 1.89654,-0.908758 0.67169,-0.908758 0.67169,-2.390428 0,-1.48167 -0.67169,-2.390427 -0.65194,-0.928513 -1.89654,-0.928513 -1.2446,0 -1.91629,0.928513 -0.65194,0.908757 -0.65194,2.390427 0,1.48167 0.65194,2.390428 0.67169,0.908758 1.91629,0.908758 z"
         id="path9446" />
      <path
         d="m 660.37812,-74.296248 h 2.58799 v 1.363137 h 0.0593 q 0.41487,-0.691446 1.14583,-1.165581 0.73096,-0.474134 1.79776,-0.474134 0.96802,0 1.69898,0.49389 0.73096,0.474134 1.10631,1.284114 h 0.0395 q 0.51365,-0.829735 1.28412,-1.30387 0.79022,-0.474134 1.75825,-0.474134 1.6002,0 2.46945,0.968024 0.86924,0.948269 0.86924,2.627495 v 6.815682 h -2.68676 v -6.361303 q 0,-0.869246 -0.41487,-1.30387 -0.39511,-0.434623 -1.14582,-0.434623 -0.84949,0 -1.34338,0.612424 -0.47414,0.592668 -0.47414,1.600203 v 5.887169 h -2.68676 v -6.361303 q 0,-0.869246 -0.41487,-1.30387 -0.39511,-0.434623 -1.14582,-0.434623 -0.82974,0 -1.32363,0.612424 -0.49389,0.592668 -0.49389,1.600203 v 5.887169 h -2.68676 z"
         id="path9448" />
      <path
         d="m 676.85429,-74.296248 h 2.58798 v 1.264359 h 0.0593 q 0.49389,-0.671691 1.20509,-1.106314 0.73095,-0.434623 1.778,-0.434623 1.00754,0 1.81752,0.395112 0.80998,0.395112 1.38289,1.106314 0.59267,0.691446 0.889,1.679226 0.31609,0.987779 0.31609,2.173115 0,1.224848 -0.31609,2.232383 -0.31609,0.98778 -0.90876,1.679226 -0.57291,0.691446 -1.38289,1.066803 -0.80998,0.375356 -1.778,0.375356 -1.06681,0 -1.77801,-0.395112 -0.7112,-0.395112 -1.14582,-1.047047 h -0.0395 v 4.464766 h -2.68676 z m 5.07718,8.198574 q 1.0273,0 1.61996,-0.790224 0.61243,-0.809979 0.61243,-2.252138 0,-1.442159 -0.55316,-2.350916 -0.5334,-0.908758 -1.778,-0.908758 -0.63218,0 -1.08656,0.256823 -0.43462,0.256823 -0.73096,0.691446 -0.27658,0.434623 -0.41487,1.047046 -0.11853,0.592668 -0.11853,1.264359 0,1.382892 0.61242,2.212627 0.63218,0.829735 1.83727,0.829735 z"
         id="path9450" />
      <path
         d="m 694.53553,-64.161625 v -1.185336 h -0.0593 q -0.51365,0.691446 -1.18534,1.086558 -0.65193,0.375356 -1.71874,0.375356 -1.69898,0 -2.60774,-0.98778 -0.90875,-0.98778 -0.90875,-2.667006 v -6.756415 h 2.667 v 6.302037 q 0,0.889002 0.39511,1.363136 0.41487,0.474134 1.28412,0.474134 0.94827,0 1.48167,-0.632179 0.55316,-0.651935 0.55316,-1.65947 v -5.847658 h 2.68676 v 10.134623 z"
         id="path9452" />
      <path
         d="m 698.26933,-74.296248 h 1.40264 v -3.160896 h 2.6275 v 3.160896 h 1.73849 v 1.778004 h -1.73849 v 5.373523 q 0,0.572913 0.27658,0.790224 0.27658,0.217312 0.73095,0.217312 h 0.51365 q 0.13829,0 0.27658,-0.01976 v 1.97556 q -0.19756,0.01976 -0.43462,0.01976 -0.21732,0.01976 -0.53341,0.01976 -0.31609,0 -0.7112,0 -0.49389,0 -0.98778,-0.09878 -0.47413,-0.118534 -0.86924,-0.395112 -0.39512,-0.276579 -0.65194,-0.750713 -0.23707,-0.474135 -0.23707,-1.185336 v -5.946436 h -1.40264 z"
         id="path9454" />
      <path
         d="m 711.90069,-64.161625 q -0.11854,-0.158045 -0.19756,-0.474134 -0.079,-0.31609 -0.11853,-0.651935 h -0.0395 q -0.19756,0.296334 -0.45438,0.553157 -0.23707,0.237067 -0.59267,0.414867 -0.33584,0.177801 -0.80998,0.276579 -0.47413,0.118533 -1.12607,0.118533 -1.56069,0 -2.54847,-0.790224 -0.98778,-0.790224 -0.98778,-2.311405 0,-0.829735 0.31609,-1.402648 0.31609,-0.572912 0.86925,-0.948268 0.55315,-0.375357 1.28411,-0.572913 0.75071,-0.217311 1.6002,-0.335845 1.26436,-0.1778 1.85703,-0.375356 0.59267,-0.197556 0.59267,-0.770469 0,-0.553156 -0.43463,-0.869246 -0.41486,-0.335845 -1.26435,-0.335845 -0.94827,0 -1.42241,0.355601 -0.47413,0.335845 -0.5334,1.066802 h -2.39043 q 0.0198,-0.67169 0.29634,-1.264358 0.27658,-0.612424 0.80998,-1.066803 0.5334,-0.454379 1.34338,-0.730957 0.80998,-0.276578 1.91629,-0.276578 2.2719,0 3.25968,0.98778 1.00753,0.968024 1.00753,2.746028 v 5.156211 q 0,1.145825 0.3556,1.402648 v 0.09878 z m -2.68676,-1.639715 q 0.57291,0 1.00753,-0.158045 0.45438,-0.1778 0.75071,-0.434623 0.31609,-0.276578 0.47414,-0.612423 0.15804,-0.355601 0.15804,-0.730958 v -1.521181 q -0.3556,0.217312 -0.86924,0.355601 -0.49389,0.118534 -1.00754,0.237067 -1.0668,0.237067 -1.58045,0.553157 -0.51364,0.31609 -0.51364,1.027291 0,0.711202 0.43462,1.007536 0.43462,0.276578 1.14583,0.276578 z"
         id="path9456" />
      <path
         d="m 719.86218,-60.36855 q -0.67169,0 -1.18534,-0.158045 -0.51364,-0.158044 -0.90875,-0.414867 l 0.3556,-0.632179 q 0.29633,0.138289 0.65193,0.217311 0.37536,0.07902 0.73096,0.07902 0.45438,0 0.79022,-0.158045 0.33585,-0.138289 0.33585,-0.454379 0,-0.276578 -0.23707,-0.434623 -0.23707,-0.138289 -0.57291,-0.138289 -0.21731,0 -0.39511,0.03951 -0.1778,0.03951 -0.33585,0.09878 l -0.31609,-0.434623 1.12607,-1.145825 q -1.0668,-0.09878 -1.91629,-0.533401 -0.82974,-0.454379 -1.4224,-1.165581 -0.59267,-0.711201 -0.90876,-1.619959 -0.31609,-0.928513 -0.31609,-1.995316 0,-1.126069 0.3556,-2.094093 0.3556,-0.98778 1.00753,-1.698982 0.67169,-0.730957 1.60021,-1.145824 0.92851,-0.414868 2.09409,-0.414868 0.98778,0 1.77801,0.276578 0.79022,0.276579 1.36313,0.770469 0.59267,0.474134 0.94827,1.16558 0.37536,0.671691 0.51365,1.501426 h -2.6275 q -0.13829,-0.671691 -0.63218,-1.106314 -0.47413,-0.454379 -1.22484,-0.454379 -1.22485,0 -1.83728,0.869247 -0.61242,0.84949 -0.61242,2.33116 0,1.442159 0.57291,2.331161 0.59267,0.869247 1.83727,0.869247 0.82974,0 1.36314,-0.414868 0.5334,-0.434623 0.67169,-1.30387 h 2.58798 q -0.13828,1.540937 -1.20509,2.627495 -1.04704,1.066803 -2.88431,1.224847 l -0.8495,0.711202 v 0.03951 q 0.39512,-0.05927 0.77047,-0.01975 0.37536,0.03951 0.67169,0.197556 0.29634,0.158044 0.47414,0.414867 0.1778,0.276579 0.1778,0.671691 0,0.711201 -0.69145,1.106313 -0.69144,0.395112 -1.69898,0.395112 z"
         id="path9458" />
      <path
         d="m 732.84161,-64.161625 q -0.11853,-0.158045 -0.19755,-0.474134 -0.079,-0.31609 -0.11854,-0.651935 h -0.0395 q -0.19755,0.296334 -0.45438,0.553157 -0.23706,0.237067 -0.59266,0.414867 -0.33585,0.177801 -0.80998,0.276579 -0.47414,0.118533 -1.12607,0.118533 -1.5607,0 -2.54848,-0.790224 -0.98778,-0.790224 -0.98778,-2.311405 0,-0.829735 0.31609,-1.402648 0.31609,-0.572912 0.86925,-0.948268 0.55316,-0.375357 1.28411,-0.572913 0.75072,-0.217311 1.60021,-0.335845 1.26436,-0.1778 1.85702,-0.375356 0.59267,-0.197556 0.59267,-0.770469 0,-0.553156 -0.43462,-0.869246 -0.41487,-0.335845 -1.26436,-0.335845 -0.94827,0 -1.4224,0.355601 -0.47414,0.335845 -0.5334,1.066802 h -2.39043 q 0.0198,-0.67169 0.29633,-1.264358 0.27658,-0.612424 0.80998,-1.066803 0.5334,-0.454379 1.34338,-0.730957 0.80998,-0.276578 1.9163,-0.276578 2.27189,0 3.25967,0.98778 1.00754,0.968024 1.00754,2.746028 v 5.156211 q 0,1.145825 0.3556,1.402648 v 0.09878 z m -2.68676,-1.639715 q 0.57291,0 1.00754,-0.158045 0.45438,-0.1778 0.75071,-0.434623 0.31609,-0.276578 0.47413,-0.612423 0.15805,-0.355601 0.15805,-0.730958 v -1.521181 q -0.3556,0.217312 -0.86925,0.355601 -0.49389,0.118534 -1.00753,0.237067 -1.0668,0.237067 -1.58045,0.553157 -0.51365,0.31609 -0.51365,1.027291 0,0.711202 0.43463,1.007536 0.43462,0.276578 1.14582,0.276578 z m 1.81752,-9.719755 q -0.3556,0 -0.67169,-0.09878 -0.29634,-0.09878 -0.57292,-0.217311 -0.25682,-0.13829 -0.49389,-0.237068 -0.21731,-0.09878 -0.41486,-0.09878 -0.43463,0 -0.5334,0.612424 h -1.42241 q 0,-1.16558 0.51365,-1.738493 0.51364,-0.592668 1.26436,-0.592668 0.3556,0 0.65193,0.118534 0.31609,0.09878 0.57291,0.237067 0.27658,0.118534 0.49389,0.237067 0.23707,0.09878 0.43463,0.09878 0.27658,0 0.39511,-0.158045 0.11853,-0.1778 0.1778,-0.454378 h 1.4224 q 0,1.007535 -0.47413,1.65947 -0.47414,0.632179 -1.34338,0.632179 z"
         id="path9460" />
      <path
         d="m 741.57357,-63.865291 q -1.18533,0 -2.15336,-0.414868 -0.96802,-0.414867 -1.67922,-1.126069 -0.69145,-0.730957 -1.08656,-1.698981 -0.37536,-0.98778 -0.37536,-2.11385 0,-1.126069 0.37536,-2.094093 0.39511,-0.98778 1.08656,-1.698982 0.7112,-0.730957 1.67922,-1.145824 0.96803,-0.414868 2.15336,-0.414868 1.18534,0 2.15336,0.414868 0.96803,0.414867 1.65948,1.145824 0.7112,0.711202 1.08655,1.698982 0.39512,0.968024 0.39512,2.094093 0,1.12607 -0.39512,2.11385 -0.37535,0.968024 -1.08655,1.698981 -0.69145,0.711202 -1.65948,1.126069 -0.96802,0.414868 -2.15336,0.414868 z m 0,-2.054582 q 1.24461,0 1.89654,-0.908758 0.67169,-0.908758 0.67169,-2.390428 0,-1.48167 -0.67169,-2.390427 -0.65193,-0.928513 -1.89654,-0.928513 -1.2446,0 -1.91629,0.928513 -0.65193,0.908757 -0.65193,2.390427 0,1.48167 0.65193,2.390428 0.67169,0.908758 1.91629,0.908758 z"
         id="path9462" />
    </g>
    <g
       transform="matrix(0.26458333,0,0,0.26458333,638.09382,-103.04065)"
       id="text8629"
       style="font-size:21.3333px;line-height:1.25;font-family:NHaasGroteskDSPro-65Md;-inkscape-font-specification:NHaasGroteskDSPro-65Md;white-space:pre;shape-inside:url(#rect8631)" />
  </g>
</svg>
