<?xml version="1.0" encoding="UTF-8" standalone="no"?>
<!-- Created with Inkscape (http://www.inkscape.org/) -->

<svg
   width="40mm"
   height="40mm"
   viewBox="0 0 40 40"
   version="1.1"
   id="svg10471"
   inkscape:version="1.1.2 (b8e25be833, 2022-02-05)"
   sodipodi:docname="favicon.svg"
   inkscape:export-filename="C:\Users\Nathan\Local Sites\clic\app\public\wp-content\themes\clic\assets\imgs\favicon.png"
   inkscape:export-xdpi="96"
   inkscape:export-ydpi="96"
   xmlns:inkscape="http://www.inkscape.org/namespaces/inkscape"
   xmlns:sodipodi="http://sodipodi.sourceforge.net/DTD/sodipodi-0.dtd"
   xmlns="http://www.w3.org/2000/svg"
   xmlns:svg="http://www.w3.org/2000/svg">
  <sodipodi:namedview
     id="namedview10473"
     pagecolor="#ffffff"
     bordercolor="#666666"
     borderopacity="1.0"
     inkscape:pageshadow="2"
     inkscape:pageopacity="0.0"
     inkscape:pagecheckerboard="0"
     inkscape:document-units="mm"
     showgrid="false"
     fit-margin-top="0"
     fit-margin-left="0"
     fit-margin-right="0"
     fit-margin-bottom="0"
     inkscape:zoom="1.8101934"
     inkscape:cx="-5.5242717"
     inkscape:cy="67.948542"
     inkscape:window-width="1920"
     inkscape:window-height="1057"
     inkscape:window-x="-8"
     inkscape:window-y="-8"
     inkscape:window-maximized="1"
     inkscape:current-layer="layer1" />
  <defs
     id="defs10468">
    <clipPath
       id="clip0_357_8">
      <rect
         width="109"
         height="110"
         fill="#ffffff"
         transform="translate(32,26)"
         id="rect832"
         x="0"
         y="0" />
    </clipPath>
  </defs>
  <g
     inkscape:label="Layer 1"
     inkscape:groupmode="layer"
     id="layer1"
     transform="translate(-80.337355,-130.77119)">
    <rect
       style="opacity:1;fill:#ffffff;fill-opacity:1;stroke:none;stroke-width:0.28497"
       id="rect1052"
       width="40"
       height="40"
       x="80.337357"
       y="130.77119"
       ry="19.585848" />
    <g
       id="g936"
       transform="matrix(2.2469248,0,0,2.2469248,-168.64943,-151.50788)">
      <path
         class="st17"
         d="m 119.27825,138.454 c -0.52916,-0.29898 -1.05039,-0.62177 -1.51871,-1.01071 -0.4392,-0.38894 -0.78052,-0.87842 -1.1721,-1.2991 -1.4314,-1.54252 -1.08744,-3.43694 -0.15875,-5.06413 -0.09,-0.0688 -0.16933,-0.14023 -0.23812,-0.2196 -1.4605,1.68804 -1.96586,3.97933 -0.39423,5.93989 0.40745,0.5424 1.02129,0.86254 1.59808,1.17211 0.56092,0.32014 1.12977,0.59796 1.71715,0.83079 0.82285,0.33337 1.66687,0.58473 2.51618,0.8255 0.0106,-0.0291 0.0185,-0.0609 0.0317,-0.09 -0.81756,-0.31485 -1.63248,-0.6641 -2.3786,-1.08744 z"
         id="path696"
         style="stroke-width:0.264583" />
      <path
         class="st24"
         d="m 118.60886,127.95269 c 0.33866,0.30162 0.38364,0.80698 0.39687,1.26206 0.0106,0.39158 0.0106,0.79375 -0.11112,1.16681 -0.22225,0.68792 -0.96044,1.23561 -1.66159,1.06098 -3.0771,-0.76994 -0.40216,-5.08265 1.37848,-3.48985 z"
         id="path698"
         style="fill:#d75930;fill-opacity:1;stroke-width:0.264583" />
      <path
         class="st21"
         d="m 118.61679,127.9421 c 0.35719,0.32809 0.42598,0.84932 0.47096,1.30704 0.045,0.46038 0.0503,0.97103 -0.19579,1.41817 -0.36512,0.64029 -1.16152,1.02394 -1.86267,0.762 -1.4261,-0.35983 -1.66158,-1.83885 -0.89429,-2.9501 0.51329,-0.83609 1.70392,-1.29911 2.48444,-0.53711 v 0 z m -0.0159,0.0212 c -1.56369,-1.27794 -3.60892,1.91823 -2.13254,3.05329 0.79639,0.66675 1.78329,0.51065 2.23044,-0.44714 0.1852,-0.39159 0.19843,-0.85196 0.22489,-1.31498 0.0185,-0.44715 0.0344,-0.96573 -0.32279,-1.29117 z"
         id="path700"
         style="fill:#d75930;fill-opacity:1;stroke-width:0.264583" />
      <path
         class="st24"
         d="m 122.22307,138.72652 c -0.37836,0.33602 -0.64823,0.80962 -0.6694,1.31498 -0.0212,0.50535 0.24077,1.02923 0.69321,1.25412 0.32808,0.16405 0.70908,0.16405 1.07685,0.15875 0.29898,-0.003 0.62442,-0.0159 0.84931,-0.21166 0.28311,-0.24607 0.29634,-0.67469 0.2884,-1.0504 -0.008,-0.29898 -0.0185,-0.61119 -0.14817,-0.87842 -0.27252,-0.55562 -0.97631,-0.75935 -1.59543,-0.7276 l -0.49213,0.13758 z"
         id="path704"
         style="fill:#d75930;fill-opacity:1;stroke-width:0.264583" />
      <path
         class="st21"
         d="m 122.22836,138.73975 c -0.93663,0.93927 -0.68527,2.75167 0.86254,2.67494 0.33867,-0.008 0.75406,0.008 1.01335,-0.23019 0.35454,-0.381 0.22225,-1.016 0.17727,-1.48961 -0.15081,-0.92868 -1.29645,-1.16945 -2.05316,-0.95514 z m -0.0132,-0.0238 c 0.1561,-0.0661 0.32014,-0.12436 0.48419,-0.18786 0.381,-0.045 0.78316,-0.0106 1.14829,0.16934 0.59531,0.23812 0.78581,0.94191 0.74083,1.524 0.0344,0.635 -0.20108,1.28058 -0.93927,1.27793 -0.73554,0.0132 -1.66688,0.0582 -2.05317,-0.72231 -0.38629,-0.71967 -0.0238,-1.63512 0.61648,-2.06375 v 0 z"
         id="path706"
         style="fill:#d75930;fill-opacity:1;stroke-width:0.264583" />
    </g>
  </g>
</svg>
