<svg width="161" height="159" viewBox="0 0 161 159" fill="none" xmlns="http://www.w3.org/2000/svg">
<path d="M161 87.988C161 108.723 138.069 136.537 124.5 148.5C109.517 161.71 102.881 158 82.3714 158C43.2886 158 0.5 141.13 0.5 97.5C0.5 53.8695 43.2886 0 82.3714 0C102.57 0 134.838 1.405 147.731 16.5569C159.786 30.7231 161 66.9062 161 87.988Z" fill="#6EA4B7" fill-opacity="0.45"/>
<g clip-path="url(#clip0_357_9)">
<path d="M65.7103 126.521C65.3392 126.109 65.2673 124.975 65.1991 118.447C65.1208 110.954 65.1116 110.844 64.5087 110.239C63.9166 109.645 63.7036 109.622 57.6659 109.492C51.513 109.359 51.415 109.347 49.9068 108.604C47.6114 107.472 45.8406 105.729 44.7367 103.514L43.7864 101.608V94.7966V87.9855L41.9751 87.7973C38.9841 87.4865 37.5365 86.6531 36.515 84.6537C35.4804 82.6286 35.7373 81.9581 39.7991 76.0809C43.3699 70.9141 44.3729 69.3051 44.8306 68.0099C45.0138 67.4914 45.2693 64.6429 45.3984 61.6799C45.6673 55.5093 46.2603 52.517 48.0321 48.3916C49.631 44.6689 51.408 42.0304 54.2449 39.1671C60.6609 32.6912 68.5216 29.4347 78.6951 29.0381C88.644 28.6503 97.2035 31.2203 104.42 36.762C106.482 38.346 109.892 41.7399 111.255 43.5653L112.01 44.5755H116.382C122.555 44.5755 124.797 45.3418 127.729 48.4546C129.302 50.1236 130.318 52.0911 130.728 54.2616C131.107 56.2682 131.083 77.0078 130.699 78.8384C130.246 81.0031 129.223 82.9513 127.64 84.6676C124.988 87.5432 122.376 88.4813 117.02 88.4813H113.62L111.911 90.6422C109.715 93.4186 107.781 96.7669 107.092 98.9864C106.161 101.987 106.349 105.176 108.351 120.36C108.892 124.463 108.988 125.858 108.762 126.354L108.469 127H87.3056C67.3625 127 66.1173 126.972 65.7103 126.521ZM104.839 122.623C104.661 121.858 103.504 112.28 103.078 108.055C102.901 106.302 102.812 103.514 102.881 101.86C102.987 99.3105 103.133 98.527 103.84 96.7228C104.713 94.4976 105.968 92.2843 107.711 89.8955L108.743 88.4813L107.191 88.4885L105.64 88.4956L97.3212 94.4107C92.7459 97.6641 88.761 100.342 88.4658 100.361C87.4819 100.427 87.1277 100.307 86.6545 99.7494C86.2414 99.2628 86.1849 98.5506 86.1849 93.8387V88.4813H81.7811C76.9806 88.4813 75.3014 88.1563 72.9471 86.7714C70.3666 85.2533 67.9656 81.8066 67.4045 78.8149C67.2484 77.9826 67.1324 72.6374 67.1324 66.2788C67.1324 54.4713 67.2187 53.5103 68.5064 50.9765C69.2954 49.4242 71.7021 46.9582 73.2577 46.1084C75.9983 44.6111 76.4318 44.5763 92.4803 44.5651L107.25 44.5549L104.911 42.2956C99.9707 37.524 95.1602 34.9783 88.2602 33.4841C84.2659 32.6191 76.5415 32.6245 72.5171 33.4951C62.4214 35.679 54.8219 41.7091 51.3773 50.2695C49.93 53.8661 49.394 56.7781 49.153 62.3533C48.9003 68.1978 48.6506 69.3608 47.1102 71.8659C46.1802 73.3784 42.3358 79.0721 40.4893 81.6718C39.2412 83.4289 39.7238 83.7483 44.2527 84.1627C47.726 84.4805 47.5433 83.984 47.5433 93.099C47.5433 98.8005 47.6308 100.83 47.9051 101.487C48.4418 102.772 49.589 104.022 50.9929 104.85C52.2276 105.579 52.2959 105.587 58.2886 105.723C64.0758 105.854 64.3942 105.889 65.6394 106.532C67.4183 107.451 68.4054 108.75 68.7511 110.627C68.9077 111.477 68.9977 114.606 68.9544 117.691L68.8767 123.229L86.928 123.229L104.979 123.229L104.839 122.623ZM97.3948 89.8462L104.63 84.7463L112.783 84.661L120.936 84.5757L122.46 83.8241C124.113 83.0093 125.284 81.8401 126.234 80.0564C126.837 78.9234 126.839 78.8724 126.839 66.5285V54.1379L126.177 52.8369C125.382 51.2747 123.864 49.8404 122.176 49.057C120.941 48.4838 120.838 48.4813 99.0654 48.4813C77.3951 48.4813 77.1842 48.4864 75.9741 49.0485C74.2611 49.8441 72.8552 51.1636 72.0125 52.7668L71.2917 54.1379V66.5285V78.9191L72.0125 80.2902C72.856 81.8949 74.2632 83.2148 75.9741 84.0061C77.0698 84.5129 77.7885 84.5803 82.9648 84.662C90.5006 84.7809 89.9417 84.3202 89.9417 90.4139C89.9417 92.9066 89.9905 94.9461 90.0504 94.9461C90.1102 94.9461 93.4152 92.6511 97.3948 89.8462ZM95.4843 78.0224C95.2401 77.7515 95.0403 77.2969 95.0403 77.0123C95.0403 76.7277 96.5618 71.8888 98.4215 66.2591C100.675 59.4369 101.983 55.8661 102.342 55.5519C103.486 54.553 105.237 55.2981 105.237 56.7834C105.237 57.7258 98.7522 77.5161 98.2406 78.1348C97.7824 78.6891 96.0206 78.6172 95.4843 78.0224ZM107.921 76.6859C107.088 76.4236 106.579 75.7214 106.579 74.8344C106.579 74.0511 107.004 73.4772 109.774 70.518L112.969 67.1051L109.975 63.9118C108.329 62.1554 106.872 60.4791 106.738 60.1867C106.201 59.0129 107.682 57.519 109.041 57.8641C109.384 57.9512 111.446 59.9043 113.623 62.2042C116.572 65.3196 117.581 66.5591 117.581 67.0647C117.581 67.5656 116.526 68.889 113.55 72.119C109.723 76.2734 108.853 76.9794 107.921 76.6859ZM85.5264 72.1506C83.3057 69.8354 81.4159 67.6805 81.3267 67.3619C81.2375 67.0433 81.2562 66.5436 81.3682 66.2515C81.4802 65.9593 83.3735 63.9324 85.5756 61.7472C89.0024 58.3468 89.6995 57.7742 90.412 57.7742C91.341 57.7742 92.3568 58.8006 92.3568 59.7393C92.3568 60.0759 91.1033 61.5578 89.0862 63.6058L85.8156 66.9266L87.9538 69.1517C92.1143 73.4816 92.3509 73.7714 92.3539 74.5419C92.358 75.5409 91.4882 76.3601 90.4237 76.3601C89.6653 76.3601 89.0885 75.8644 85.5264 72.1506Z" fill="#D75930"/>
</g>
<defs>
<clipPath id="clip0_357_9">
<rect width="95" height="98" fill="white" transform="translate(36 29)"/>
</clipPath>
</defs>
</svg>
