<svg width="172" height="149" viewBox="0 0 172 149" fill="none" xmlns="http://www.w3.org/2000/svg">
<path d="M172 84.988C172 128.618 132.083 149 93 149C53.9172 149 0 128.618 0 84.988C0 41.3575 35.9172 0.5 75 0.5C95.1984 0.5 140.106 12.8481 153 28C165.055 42.1662 172 63.9061 172 84.988Z" fill="#D75930" fill-opacity="0.53"/>
<g clip-path="url(#clip0_357_10)">
<path d="M81.7378 124.693C81.3808 124.55 80.7087 124.142 80.2443 123.787L79.4 123.141H60.609H41.8181L41.409 122.554C41.0472 122.036 41 119.558 41 101.07V80.1727L41.5751 79.635C42.0728 79.1695 42.497 79.0972 44.7284 79.0972H47.3066V77.6293C47.3066 76.1935 47.6208 75.2037 48.1999 74.8156C48.359 74.709 53.0608 74.62 58.6484 74.6178C66.5601 74.6147 69.2594 74.7005 70.8491 75.0057C71.9718 75.2213 72.9262 75.3618 72.9699 75.3179C73.0136 75.2741 72.9197 74.8306 72.7612 74.3326C72.6028 73.8345 72.3918 71.2907 72.2924 68.6798C72.1209 64.1739 72.0744 63.86 71.3757 62.5035C70.9709 61.7175 69.5539 59.9357 68.2269 58.5439C64.6132 54.7538 63.092 51.9132 62.1336 47.1664C61.602 44.5331 61.7379 40.0855 62.4313 37.4275C64.4254 29.7829 70.6161 23.6627 78.4594 21.5819C81.3866 20.8053 86.2776 20.8061 89.2189 21.5839C97.3776 23.7406 103.467 29.9742 105.415 38.1637C105.875 40.0946 105.943 41.0491 105.846 44.1529C105.744 47.4105 105.636 48.1161 104.931 50.1473C103.781 53.4596 102.334 55.7175 99.2715 58.9746C95.7553 62.7147 95.6018 63.1242 95.3869 69.3393C95.2979 71.9126 95.0897 74.2835 94.9163 74.6978C94.6391 75.3601 94.6553 75.4257 95.0654 75.3012C96.2504 74.9413 99.1547 74.6178 101.216 74.616L103.491 74.6139L103.581 70.8557C103.664 67.4287 103.729 66.9939 104.328 65.9215C104.733 65.197 105.448 64.4587 106.19 63.9984L107.395 63.2513L117.343 63.2669L127.291 63.2826L128.416 63.9443C129.107 64.351 129.822 65.086 130.27 65.8517L131 67.0975V76.7238C131 86.1454 130.988 86.3732 130.42 87.4377C129.763 88.6716 128.503 89.8343 127.57 90.0695L126.939 90.2284L126.867 106.31C126.798 121.881 126.779 122.404 126.286 122.766C125.856 123.081 122.808 123.141 107.073 123.141C88.6862 123.141 88.3587 123.15 87.6931 123.675C86.1473 124.896 83.4107 125.363 81.7378 124.693ZM75.4233 118.916C74.9175 118.636 73.735 118.14 72.7956 117.816C71.1588 117.25 70.6126 117.22 59.699 117.084L48.3106 116.943L47.8085 116.32C47.3265 115.722 47.3066 115.049 47.3066 99.3754V83.0532H45.9927H44.6788V101.251V119.448L60.511 119.437C76.3074 119.426 76.341 119.425 75.4233 118.916ZM123.248 104.943V90.4377H121.803H120.358V103.068C120.358 115.107 120.334 115.727 119.856 116.32L119.354 116.943L107.965 117.093C95.8423 117.252 95.9596 117.24 92.9635 118.654C92.277 118.978 91.7153 119.289 91.7153 119.345C91.7153 119.402 98.8102 119.448 107.482 119.448H123.248V104.943ZM91.0584 115.475C95.1507 113.449 96.1098 113.312 107.022 113.183L116.679 113.069V101.754V90.4377L112.277 90.4319C107.243 90.4254 106.336 90.1809 104.913 88.4484C103.84 87.1418 103.54 85.6357 103.54 81.5535V78.2336L100.452 78.3687C98.0247 78.4748 96.8959 78.661 95.1702 79.2399C91.6832 80.4096 88.7066 82.5635 86.5717 85.4622L85.6715 86.6843V102.933V119.182L87.3139 117.849C88.2171 117.116 89.9022 116.047 91.0584 115.475ZM81.6269 86.011C80.4135 83.6611 76.8517 80.8941 73.4365 79.6482C70.3273 78.5139 68.119 78.306 59.178 78.306L51.1168 78.306V95.7123V113.119L59.2696 113.119C63.7537 113.119 68.4138 113.243 69.6252 113.396C73.761 113.916 78.2036 115.756 80.9416 118.082L81.8613 118.863L81.929 102.795C81.9854 89.4007 81.935 86.608 81.6269 86.011ZM56.7855 101.611C56.0703 100.698 56.0979 100.052 56.8858 99.2608L57.5309 98.6134H66.6204H75.71L76.355 99.2608C77.1362 100.045 77.1846 101.065 76.4744 101.778C75.9687 102.286 75.5985 102.306 66.6395 102.306H57.3301L56.7855 101.611ZM56.8858 93.7464C56.5311 93.3903 56.2409 92.9078 56.2409 92.6741C56.2409 92.1563 56.7396 91.1678 57.1342 90.9033C57.2933 90.7967 61.5916 90.7077 66.6861 90.7055C75.6014 90.7016 75.9686 90.7212 76.4744 91.2289C77.1846 91.9417 77.1362 92.9623 76.355 93.7464L75.71 94.3937H66.6204H57.5309L56.8858 93.7464ZM126.664 86.218C127.169 85.7114 127.19 85.3389 127.19 76.8103C127.19 68.9173 127.141 67.8765 126.755 67.4478C126.35 66.9985 125.706 66.9655 117.336 66.9655C108.538 66.9655 108.341 66.977 107.851 67.5203C107.384 68.0382 107.345 68.6487 107.275 76.7026C107.201 85.1399 107.211 85.3457 107.754 86.0378L108.308 86.7455H117.223C125.788 86.7455 126.159 86.7247 126.664 86.218ZM114.665 82.886C114.496 82.8169 113.402 81.6951 112.234 80.393C110.652 78.6298 110.109 77.8385 110.109 77.2925C110.109 76.2516 110.986 75.405 112.064 75.405C112.817 75.405 113.15 75.6388 114.311 76.9842L115.674 78.5635L118.304 75.0722C121.279 71.1216 121.734 70.6578 122.632 70.6578C123.401 70.6578 124.562 71.7483 124.562 72.4698C124.562 73.0388 118.697 81.1684 117.45 82.3279C116.711 83.0157 115.549 83.2486 114.665 82.886ZM86.0573 80.4818L88.0897 78.5697H83.7988H79.508L80.5532 79.4173C81.1281 79.8834 82.0651 80.7756 82.6354 81.4C83.2058 82.0244 83.7517 82.5034 83.8486 82.4645C83.9455 82.4257 84.9394 81.5334 86.0573 80.4818ZM89.0775 74.6601C90.5704 74.4332 91.4525 73.275 91.4525 71.5418V70.394H83.8321H76.2117V71.1937C76.2117 72.7745 77.2475 74.3949 78.4452 74.6878C79.2486 74.8842 87.749 74.8621 89.0775 74.6601ZM80.6231 63.2733C80.6647 61.315 80.6366 59.4607 80.5606 59.1525C80.4846 58.8443 79.1059 56.8267 77.4967 54.669C73.5064 49.3186 73.0989 48.3336 73.9906 46.1917C75.5188 42.5209 80.2959 41.7958 83.1631 44.7994L83.9076 45.5794L84.9486 44.6851C86.417 43.4236 87.5149 42.9658 89.072 42.9658C91.5512 42.9658 93.4472 44.4697 94.1117 46.9635C94.5868 48.7461 94.0945 49.7717 90.4046 54.687L87.2481 58.8917L87.2476 62.8627L87.2471 66.8337H89.4153H91.5836L91.9124 64.7238C92.4145 61.5008 93.5608 59.4219 96.495 56.4131C100.518 52.2873 101.966 49.156 102.161 44.1526C102.303 40.512 101.823 38.0563 100.407 35.1857C97.1366 28.5519 91.0492 24.7076 83.8167 24.7082C76.8842 24.7089 70.4613 28.702 67.4411 34.889C65.2427 39.3925 64.9266 44.043 66.478 49.0574C67.2818 51.6556 68.7565 53.9147 71.3924 56.5859C74.2246 59.456 75.2487 61.2983 75.9037 64.7009L76.3428 66.9823L78.445 66.908L80.5472 66.8336L80.6231 63.2733ZM87.3511 52.4572C90.6882 48.0142 90.7166 47.9645 90.2922 47.3145C89.5299 46.1467 88.7003 46.4316 86.4432 48.6361C85.1171 49.9313 84.21 50.6141 83.8156 50.6141C83.4039 50.6141 82.6339 49.9881 81.3827 48.6361C79.3205 46.4079 78.4308 46.095 77.6327 47.3174C77.1174 48.1068 77.074 48.0256 80.0663 51.8644C81.1698 53.28 82.4389 54.9998 82.8866 55.6862C83.3344 56.3726 83.7638 56.9363 83.841 56.9389C83.9182 56.9419 85.4977 54.9248 87.3511 52.4572Z" fill="#424242"/>
</g>
<defs>
<clipPath id="clip0_357_10">
<rect width="90" height="104" fill="white" transform="translate(41 21)"/>
</clipPath>
</defs>
</svg>
