<svg width="158" height="157" viewBox="0 0 158 157" fill="none" xmlns="http://www.w3.org/2000/svg">
<path d="M70.012 157C26.3815 157 0 117.454 0 78.3714C0 39.2886 26.3815 0.999904 70.012 0.999904C92.5965 0.999904 124.722 -2.95384 141.443 16.5C157.025 34.6286 158 59.5191 158 78.3714C158 98.5698 156.595 130.838 141.443 143.731C127.277 155.786 91.0938 157 70.012 157Z" fill="#E9BF49" fill-opacity="0.31"/>
<g clip-path="url(#clip0_357_11)">
<path d="M69.8877 129.719C66.6482 128.501 64.6078 125.387 64.978 122.225C65.0594 121.53 65.3272 120.56 65.5729 120.07C65.8186 119.581 68.079 117.059 70.5961 114.467C78.3945 106.434 78.1519 106.716 77.6816 106.242C77.315 105.872 77.0301 105.87 75.0196 106.222C72.2762 106.701 70.8089 106.486 68.3707 105.245C67.1001 104.598 66.3031 103.939 65.3503 102.75C62.5103 99.2038 61.1374 94.814 62.4533 93.4872C63.2709 92.6628 64.0817 92.7702 67.6443 94.1751C70.7536 95.4011 71.4808 95.4853 71.7476 94.6498C71.7915 94.5123 70.5092 92.961 68.8979 91.2025C66.7888 88.9008 65.9215 87.754 65.8013 87.1079L65.6343 86.2104L56.4905 86.1301L47.3468 86.0498L46.0397 85.2346C45.2333 84.7316 44.4251 83.9177 43.9296 83.1096C43.2022 81.9233 43.117 81.5422 43.0262 79.0683C42.952 77.0469 43.0302 76.0937 43.3279 75.4021C43.549 74.888 45.7254 71.9934 48.1645 68.9696L52.5991 63.4717L52.6022 44.9969L52.6052 26.522L53.2281 25.1733C53.9285 23.6566 55.3728 22.2502 56.9903 21.5094C58.0252 21.0354 59.4813 21.0117 87.9456 21.0061L117.815 21L119.26 21.6896C120.055 22.0688 121.123 22.8708 121.634 23.4718C123.437 25.5966 123.392 25.0286 123.392 45.2718V63.5218L127.964 69.2619C130.479 72.4189 132.643 75.2834 132.773 75.6275C133.101 76.498 133.067 79.6855 132.713 81.354C132.368 82.9728 131.099 84.5571 129.42 85.463C128.371 86.0294 128.004 86.0523 118.759 86.1297L109.184 86.2098L110.411 87.5323C111.173 88.3542 111.637 89.1029 111.637 89.5104C111.637 90.3053 107.14 96.6087 106.084 97.2939C105.686 97.5525 104.612 98.0158 103.698 98.3234C102.18 98.8343 101.779 99.1537 99.0782 102.005L96.1208 105.128L102.772 111.885C109.927 119.154 110.302 119.677 110.302 122.413C110.302 126.477 106.489 129.983 102.647 129.452C100.478 129.152 99.3585 128.296 93.6056 122.541L87.9957 116.929L82.0008 122.857C78.7036 126.117 75.5266 129.031 74.9409 129.332C73.5752 130.034 71.2093 130.216 69.8877 129.719ZM73.2442 125.942C73.717 125.734 76.6874 122.947 79.8451 119.746L85.5865 113.928L83.2514 111.573L80.9162 109.219L75.1547 115.008C71.9859 118.192 69.2209 121.124 69.0103 121.524C68.1871 123.088 68.9377 125.204 70.5695 125.919C71.6728 126.403 72.1824 126.407 73.2442 125.942ZM105.554 124.765C106.532 123.779 106.807 122.172 106.193 121.043C105.959 120.611 103.008 117.41 99.6363 113.928L93.5058 107.598L91.3515 109.747C89.4155 111.677 88.7054 112.851 89.4726 112.851C89.6242 112.851 89.817 113.032 89.9011 113.253C90.0972 113.768 101.331 124.994 102.105 125.448C103.028 125.99 104.66 125.666 105.554 124.765ZM101.361 122.789C100.697 122.201 100.417 121.726 100.417 121.188C100.417 120.334 101.243 119.585 102.185 119.585C102.901 119.585 104.52 121.369 104.308 121.925C104.225 122.144 104.157 122.425 104.157 122.55C104.157 122.962 103.327 123.625 102.811 123.625C102.533 123.625 101.881 123.249 101.361 122.789ZM93.5151 102.375L100.296 95.4016L102.16 94.8253C103.993 94.2583 104.051 94.2121 105.735 91.9459L107.447 89.6428L106.12 88.3047L104.793 86.9665L102.54 89.058C100.6 90.8589 100.209 91.3753 99.7199 92.7746C99.4078 93.6684 98.9736 94.824 98.7552 95.3425C98.3545 96.2933 91.0546 104.301 87.7904 107.37C86.225 108.842 85.9046 109.349 86.5409 109.349C86.6472 109.349 89.7856 106.211 93.5151 102.375ZM85.5133 104.31L87.3191 102.503L84.6898 99.7981L82.0606 97.0933L81.7432 94.5344C81.2696 90.716 80.9978 90.0184 79.3196 88.3138C77.6656 86.6338 77.5158 86.5838 73.2935 86.3021C71.0075 86.1496 70.5604 86.1873 70.2549 86.5585C69.9412 86.9396 70.235 87.348 72.6181 89.8427C75.4792 92.8378 76.3712 94.048 76.3743 94.9385C76.3763 95.5922 72.6038 99.2646 71.6931 99.4951C71.28 99.5996 70.3131 99.3221 68.8864 98.6897C67.6894 98.159 66.6608 97.7744 66.6006 97.8351C66.5404 97.8957 66.9434 98.5979 67.496 99.3954C69.4661 102.239 71.9517 103.094 75.6758 102.21C76.77 101.95 77.9458 101.814 78.2888 101.908C78.6317 102.001 79.921 102.987 81.1539 104.097C82.3868 105.208 83.4657 106.117 83.5514 106.117C83.6372 106.117 84.52 105.304 85.5133 104.31ZM95.4681 93.3223C95.7998 92.5816 96.2639 91.3089 96.4995 90.4941C96.8615 89.2421 97.1809 88.7936 98.5617 87.5985L100.196 86.1844H91.4965H82.7976L83.6038 87.4638C84.5669 88.9921 85.0948 90.7684 85.3447 93.3223L85.5292 95.2078L87.7886 97.5403L90.0479 99.8728L92.4564 97.2709C93.8785 95.7347 95.112 94.1175 95.4681 93.3223ZM127.771 82.0383C128.612 81.6842 129.268 80.5909 129.268 79.5449C129.268 79.241 122.477 79.1811 87.995 79.1811H46.7221V79.9528C46.7221 80.8932 47.5872 82.0663 48.397 82.224C48.7247 82.2878 66.5176 82.3565 87.9368 82.3767C120.673 82.4076 127.023 82.3536 127.771 82.0383ZM124.295 70.831L120.637 66.252H87.9859H55.3346L52.0566 70.3597C50.2536 72.6189 48.5977 74.6795 48.3768 74.9387C47.9944 75.3874 49.9042 75.4101 87.9636 75.4101H127.952L124.295 70.831ZM119.651 44.9013C119.651 28.6508 119.621 27.5348 119.163 26.6732C118.894 26.1685 118.265 25.534 117.764 25.2633C116.899 24.7953 115.435 24.7711 87.9992 24.7715C61.063 24.7718 59.0819 24.8033 58.2091 25.2429C56.2768 26.2162 56.34 25.5514 56.3395 44.9055L56.3391 62.2117H87.995H119.651V44.9013ZM83.1445 55.5946C82.6315 55.0772 82.4956 54.7214 82.6046 54.1804C82.6848 53.7829 84.9392 48.8931 87.6145 43.3144C91.2005 35.8365 92.6461 33.0809 93.1158 32.8274C93.9737 32.3645 95.1025 32.7801 95.5512 33.7242C95.8571 34.3676 95.8084 34.6552 95.1189 36.2768C93.1151 40.9894 86.1374 55.1404 85.5515 55.6798C84.6923 56.4707 83.9888 56.4458 83.1445 55.5946ZM78.6451 54.1395C78.3513 54.0148 76.2776 52.044 74.037 49.7599C71.0643 46.7296 69.9611 45.4303 69.9556 44.9533C69.9445 43.9909 78.3007 35.8147 79.2954 35.8147C80.4579 35.8147 81.183 36.5159 81.183 37.6402C81.183 38.551 80.9306 38.8706 77.9105 41.7839L74.6381 44.9408L77.9105 48.2603C80.712 51.1022 81.183 51.7025 81.183 52.4318C81.183 53.0314 80.9744 53.4492 80.4791 53.842C79.7178 54.4458 79.4641 54.487 78.6451 54.1395ZM98.0264 54.0159C97.3849 53.6577 97.0003 53.0257 96.9629 52.2686C96.9526 52.0591 98.4745 50.3282 100.345 48.4221L103.746 44.9566L100.34 41.6651C98.3967 39.7875 96.9359 38.1635 96.9389 37.8845C96.9449 37.3052 97.4378 36.2999 97.8524 36.0209C98.014 35.912 98.5069 35.8212 98.9477 35.8189C99.6223 35.8159 100.437 36.4858 104.098 40.0572C107.395 43.2742 108.444 44.4573 108.439 44.9526C108.426 46.073 99.966 54.4387 98.8942 54.3908C98.7767 54.3857 98.3862 54.2168 98.0264 54.0159Z" fill="#50A554"/>
</g>
<defs>
<clipPath id="clip0_357_11">
<rect width="90" height="109" fill="white" transform="translate(43 21)"/>
</clipPath>
</defs>
</svg>
