<svg width="172" height="163" viewBox="0 0 172 163" fill="none" xmlns="http://www.w3.org/2000/svg">
<path d="M172 87.488C172 131.119 121.083 163 82 163C42.9172 163 0 131.119 0 87.488C0 43.8575 42.9172 0 82 0C102.198 0 142.606 6.84811 155.5 22C167.555 36.1662 172 66.4062 172 87.488Z" fill="#50A554" fill-opacity="0.47"/>
<g clip-path="url(#clip0_357_8)">
<path d="M84.0344 135.613C82.6999 135.137 60.2697 122.296 53.2863 118.01L52.2889 117.398L51.0062 118.377C48.9067 119.98 47.2741 120.458 43.9016 120.458C41.181 120.458 40.7696 120.379 38.9357 119.511C34.0192 117.182 31.2624 111.983 32.1724 106.758C32.986 102.086 35.7924 98.6436 39.9946 97.164L41.5286 96.6239L41.6768 79.025C41.8412 59.5195 41.725 60.6204 43.8342 58.5712C44.3607 58.0596 51.399 53.7902 59.4748 49.0836L74.158 40.5262L74.3247 37.7611C74.4607 35.5027 74.6615 34.6322 75.4202 33.0109C79.2722 24.7792 90.5116 23.5241 96.1412 30.697C97.8368 32.8574 98.3824 34.4321 98.5997 37.792L98.7785 40.559L113.314 48.9875C121.308 53.6231 128.271 57.7474 128.787 58.1525C129.303 58.5576 130.095 59.6447 130.547 60.5681L131.368 62.2472L131.434 79.4677L131.5 96.6882L132.714 97.0466C137.025 98.3195 140.562 102.8 140.955 107.485C141.387 112.637 138.697 117.288 134.001 119.509C132.344 120.293 131.568 120.473 129.475 120.557C126.486 120.679 124.364 120.062 122.051 118.4L120.584 117.347L119.174 118.209C113.794 121.499 90.2259 135.117 89.2032 135.526C87.709 136.124 85.566 136.16 84.0344 135.613ZM101.893 123.566C109.48 119.108 116.24 115.146 116.916 114.762L118.145 114.064L117.617 112.663C116.774 110.425 116.637 108.531 117.142 106.107C118.102 101.502 121.435 98.0104 125.958 96.8718L127.255 96.5453L127.178 79.579C127.106 63.8459 127.062 62.5607 126.572 61.8972C126.281 61.5036 123.179 59.5187 119.679 57.4863C116.178 55.4538 109.66 51.6641 105.195 49.0647L97.0761 44.3385L96.6163 45.0213C95.6107 46.5149 93.4037 48.3433 91.5432 49.2242C89.7485 50.0739 89.3324 50.1516 86.6166 50.1448C82.4653 50.1347 80.8208 49.4552 77.9064 46.5479L75.7222 44.3689L61.2081 52.8628C50.0924 59.3678 46.5929 61.5523 46.2619 62.1924C45.8984 62.8954 45.8297 65.6856 45.8297 79.749V96.4698L47.5353 96.9979C52.4151 98.5088 55.8326 102.746 56.1422 107.669C56.2634 109.597 56.106 110.575 55.1819 113.635C54.9694 114.339 53.4782 113.436 83.7986 130.965C86.6366 132.605 86.2235 132.774 101.893 123.566ZM80.9806 115.443C68.6673 113.059 59.4192 104.596 56.3163 92.8702C55.6369 90.3029 55.5303 89.305 55.5234 85.4541C55.5178 82.3794 55.6647 80.3543 55.9981 78.9004C58.7571 66.8705 67.0448 58.1695 78.7624 55.0007C80.9356 54.413 81.9623 54.3225 86.32 54.3351C90.8252 54.3481 91.6789 54.4343 94.3291 55.1442C110.369 59.4411 120.252 75.4297 116.86 91.5941C114.461 103.021 105.942 111.898 94.5126 114.878C90.9684 115.802 84.2787 116.081 80.9806 115.443ZM84.4773 104.549C84.4427 100.776 84.3544 97.6284 84.2811 97.5551C84.1334 97.4074 76.8067 97.9754 75.2476 98.2554C74.3578 98.4152 74.2797 98.5091 74.4525 99.2111C74.8352 100.766 77.2148 105.372 78.535 107.113C80.192 109.299 82.8676 111.304 84.2435 111.391C84.435 111.404 84.5179 108.977 84.4773 104.549ZM90.491 110.544C92.8946 109.165 95.1724 106.456 96.8278 103.006C97.6242 101.347 98.3538 99.6396 98.4491 99.212C98.6073 98.5018 98.5262 98.4182 97.5139 98.2474C96.9043 98.1446 95.0039 97.9875 93.2909 97.8983C91.5778 97.8091 89.8091 97.6792 89.3605 97.6095L88.5447 97.4829V104.447C88.5447 108.277 88.6448 111.409 88.7672 111.407C88.8896 111.406 89.6653 111.017 90.491 110.544ZM100.402 108.099C103.682 106.08 108.602 101.408 108.04 100.846C107.805 100.612 104.737 99.6002 103.673 99.4069L102.635 99.2183L102.074 101.034C101.304 103.528 99.82 106.535 98.5275 108.221C97.9336 108.996 97.5524 109.63 97.6805 109.63C97.8086 109.63 99.0334 108.941 100.402 108.099ZM74.1919 107.925C72.8866 106.092 71.55 103.396 70.8662 101.216C70.5659 100.259 70.1611 99.415 69.9665 99.3404C69.5173 99.168 64.8626 100.413 64.646 100.763C64.3257 101.282 69.6674 106.249 72.2175 107.804C73.5975 108.645 74.832 109.334 74.9609 109.334C75.0898 109.334 74.7438 108.7 74.1919 107.925ZM111.262 95.8089C112.09 93.9374 113.023 90.6013 113.308 88.4947L113.498 87.0857H109.061H104.623L104.426 89.2363C104.318 90.4192 104.104 92.1123 103.951 92.9988C103.548 95.3315 103.52 95.2779 105.379 95.6749C106.317 95.8753 107.818 96.3492 108.716 96.7279C109.613 97.1066 110.388 97.428 110.438 97.4423C110.487 97.4565 110.858 96.7215 111.262 95.8089ZM64.6659 96.4386C65.8079 96.0369 67.3219 95.6201 68.0303 95.5122C69.2315 95.3293 69.3072 95.2636 69.1526 94.5381C69.0615 94.1102 68.82 92.2583 68.616 90.4229L68.245 87.0857H63.8599C60.4317 87.0857 59.4748 87.1709 59.4748 87.4761C59.4748 89.6477 61.7488 97.1747 62.4035 97.1702C62.5057 97.1696 63.5238 96.8403 64.6659 96.4386ZM79.5542 93.8578L84.3571 93.4884L84.4486 90.2864L84.54 87.0844L78.4261 87.085L72.3121 87.0856L72.4003 87.7531C72.4489 88.1202 72.6472 89.8012 72.8411 91.4886L73.1935 94.5567L73.9724 94.3919C74.4007 94.3012 76.9126 94.0609 79.5542 93.8578ZM100.066 91.7009C100.255 90.1605 100.41 88.4919 100.41 87.9929V87.0857H94.4773H88.5447V90.2977V93.5098L93.5093 93.8782C96.2399 94.0809 98.5314 94.304 98.6016 94.3742C98.6718 94.4443 98.9524 94.5017 99.2254 94.5017C99.63 94.5017 99.7852 93.9843 100.066 91.7009ZM68.4967 80.782C68.6065 79.5992 68.8324 77.8499 68.9986 76.8949C69.1649 75.9398 69.2448 75.1023 69.1762 75.0337C69.1076 74.9651 68.0845 74.641 66.9025 74.3134C65.7206 73.9859 64.249 73.4605 63.6325 73.146L62.5114 72.574L61.7285 74.3187C60.9477 76.0585 60.0288 79.2814 59.6319 81.6719L59.4226 82.9327H63.8599H68.2971L68.4967 80.782ZM84.4484 79.7151L84.3565 76.4963L80.7404 76.306C78.7516 76.2013 76.246 76.0304 75.1724 75.9263L73.2204 75.7369L72.8732 78.2224C72.6821 79.5894 72.526 81.2084 72.5262 81.8203L72.5266 82.9327L78.5334 82.9333L84.5402 82.9339L84.4484 79.7151ZM100.408 81.9686C100.405 81.0738 100.011 78.1628 99.6504 76.3837C99.5 75.6412 99.4496 75.6255 97.8925 75.8368C97.0109 75.9565 94.5469 76.1507 92.4171 76.2685L88.5447 76.4827V79.7077V82.9327H94.4773H100.41L100.408 81.9686ZM113.124 81.227C112.839 79.2717 111.217 74.0249 110.663 73.2673C110.315 72.7921 110.155 72.8099 108.242 73.5365C107.116 73.9645 105.627 74.4567 104.934 74.6304C103.554 74.9761 103.55 74.9858 103.949 77.3162C104.1 78.2027 104.311 79.8291 104.417 80.9303L104.61 82.9327H108.991H113.372L113.124 81.227ZM84.4786 65.505C84.5183 61.0622 84.4346 58.609 84.2435 58.6108C84.0804 58.6119 83.269 59.0025 82.4404 59.4778C80.5559 60.5587 78.1915 63.1208 76.8275 65.5599C75.7343 67.5147 74.122 71.5747 74.3487 71.8015C74.535 71.9878 81.2863 72.4866 82.9954 72.4404L84.417 72.4019L84.4786 65.505ZM95.7466 72.0768C99.0417 71.859 98.8723 72.14 97.6185 68.974C95.8811 64.5864 92.8243 60.628 90.1005 59.2384C89.421 58.8917 88.7929 58.6081 88.7049 58.6081C88.6167 58.6081 88.5447 61.7607 88.5447 65.614V72.6199L90.6953 72.4442C91.8781 72.3476 94.1512 72.1823 95.7466 72.0768ZM70.7016 69.6668C71.225 67.7098 73.2103 63.5638 74.451 61.8367C75.0235 61.0399 75.4325 60.3879 75.36 60.3879C75.022 60.3879 71.3134 62.697 69.8213 63.8364C68.161 65.1043 65.6303 67.7231 65.0904 68.732C64.8687 69.1462 64.9535 69.3423 65.4778 69.6281C66.13 69.9835 69.3957 71.0034 70.0179 71.0459C70.1879 71.0575 70.4956 70.4369 70.7016 69.6668ZM104.479 70.6195C105.308 70.3734 106.472 69.9686 107.067 69.72L108.149 69.268L107.477 68.3135C105.904 66.0822 102.306 63.0445 99.1509 61.2838L97.4469 60.3331L98.5263 61.9179C99.8083 63.8002 101.326 66.9937 102.063 69.3613C102.356 70.2994 102.68 71.067 102.783 71.067C102.887 71.067 103.65 70.8656 104.479 70.6195ZM48.0339 115.443C52.6821 112.719 53.3526 106.051 49.321 102.644C47.5534 101.15 45.9815 100.643 43.5867 100.797C39.9513 101.03 37.4861 103.031 36.4524 106.587C35.3491 110.382 37.5198 114.64 41.2698 116.036C43.1013 116.717 46.3441 116.433 48.0339 115.443ZM132.838 115.462C138.267 112.28 138.15 104.38 132.631 101.564C131.171 100.819 128.291 100.545 126.633 100.994C122.849 102.018 120.197 106.516 121.172 110.258C121.831 112.789 123.887 115.108 126.332 116.078C127.9 116.7 131.27 116.381 132.838 115.462ZM89.1759 45.6959C90.9162 45.1029 92.5019 43.7694 93.5136 42.0484C94.2303 40.8291 94.3291 40.3561 94.3291 38.1398C94.3291 35.9235 94.2304 35.4504 93.5136 34.2311C91.8323 31.371 89.0484 29.9374 85.6979 30.2063C78.9629 30.7469 76.0094 38.9812 80.8236 43.7955C83.0132 45.9851 86.1994 46.7101 89.1759 45.6959Z" fill="#2A4687"/>
</g>
<defs>
<clipPath id="clip0_357_8">
<rect width="109" height="110" fill="white" transform="translate(32 26)"/>
</clipPath>
</defs>
</svg>
