<?xml version="1.0" encoding="UTF-8" standalone="no"?>
<!-- Created with Inkscape (http://www.inkscape.org/) -->

<svg
   width="34.919662mm"
   height="20.906769mm"
   viewBox="0 0 34.919662 20.906769"
   version="1.1"
   id="svg10471"
   inkscape:version="1.1.2 (b8e25be833, 2022-02-05)"
   sodipodi:docname="logo-clic.svg"
   xmlns:inkscape="http://www.inkscape.org/namespaces/inkscape"
   xmlns:sodipodi="http://sodipodi.sourceforge.net/DTD/sodipodi-0.dtd"
   xmlns="http://www.w3.org/2000/svg"
   xmlns:svg="http://www.w3.org/2000/svg">
  <sodipodi:namedview
     id="namedview10473"
     pagecolor="#ffffff"
     bordercolor="#666666"
     borderopacity="1.0"
     inkscape:pageshadow="2"
     inkscape:pageopacity="0.0"
     inkscape:pagecheckerboard="0"
     inkscape:document-units="mm"
     showgrid="false"
     fit-margin-top="0"
     fit-margin-left="0"
     fit-margin-right="0"
     fit-margin-bottom="0"
     inkscape:zoom="5.12"
     inkscape:cx="30.175781"
     inkscape:cy="48.242188"
     inkscape:window-width="1920"
     inkscape:window-height="1057"
     inkscape:window-x="-8"
     inkscape:window-y="-8"
     inkscape:window-maximized="1"
     inkscape:current-layer="layer1" />
  <defs
     id="defs10468" />
  <g
     inkscape:label="Layer 1"
     inkscape:groupmode="layer"
     id="layer1"
     transform="translate(-114.83182,-120.59787)">
    <path
       class="st17"
       d="m 130.82467,139.09958 c -0.0159,0.0556 -0.0265,0.11377 -0.0344,0.17198 -0.34395,-0.127 -0.68262,-0.26194 -1.02129,-0.40481 -0.79375,-0.34396 -1.57691,-0.69586 -2.27806,-1.22502 -0.18256,-0.14552 -0.37571,-0.29898 -0.508,-0.49742 -0.13494,-0.23019 -0.19315,-0.44185 -0.254,-0.65881 -0.70908,-2.93158 -0.72496,-5.969 -0.4789,-8.9535 0.0979,-1.15094 0.17463,-2.29923 0.27252,-3.44752 0.0952,0.0265 0.1905,0.045 0.2884,0.0556 0.11377,2.82575 0.32808,5.65415 0.33073,8.4746 -0.003,0.84138 -0.0238,1.6854 -0.005,2.52413 0.0238,0.59002 0.0212,1.24883 0.22754,1.78858 0.21167,0.32809 0.55033,0.55298 0.86783,0.77788 0.52123,0.35189 1.07421,0.65616 1.63777,0.93927 0.31486,0.15875 0.63236,0.30956 0.95515,0.45508 z"
       id="path690"
       style="stroke-width:0.264583" />
    <path
       class="st17"
       d="m 137.31225,135.03029 c 0.0212,-0.87048 -0.18521,-1.72773 -0.29633,-2.58498 -0.0847,-0.63235 -0.16933,-1.26206 -0.26458,-1.89442 -0.0582,-0.0159 -0.11377,-0.0318 -0.17198,-0.0503 -0.0582,0.65352 -0.10584,1.30705 -0.15346,1.96321 -0.0609,0.86254 -0.21167,1.73038 -0.13758,2.59821 0.10318,1.4261 0.24341,2.84427 0.49477,4.25185 0.10054,-0.045 0.20637,-0.0847 0.3122,-0.11377 0.15611,-1.38641 0.20638,-2.77548 0.21961,-4.16983 z"
       id="path692"
       style="stroke-width:0.264583" />
    <path
       class="st17"
       d="m 146.35571,138.52279 c -1.63512,-0.79375 -4.37621,-2.13783 -5.23875,-3.75179 -0.0132,-0.037 -0.0503,-0.12965 -0.0661,-0.16669 -0.0132,-0.0635 -0.045,-0.1561 -0.045,-0.22225 -0.0529,-0.43921 0.25664,-0.74612 0.6297,-0.97896 0.54505,-0.34131 1.17475,-0.58473 1.74096,-0.94721 0.6059,-0.39422 1.28588,-0.67468 1.97909,-0.89429 0.254,-0.082 0.51064,-0.16139 0.76729,-0.23548 -0.0344,-0.0661 -0.0582,-0.14023 -0.0714,-0.21695 -1.01071,0.0952 -2.01877,0.23283 -3.02948,0.36512 -1.33085,0.19844 -2.97127,1.35467 -2.66171,2.88131 0.26194,1.03188 1.1774,1.71186 2.01348,2.26219 1.40494,0.88371 2.921,1.54781 4.45294,2.16694 0.003,-0.0132 0.008,-0.0291 0.0132,-0.0423 -0.16404,-0.0741 -0.32808,-0.14816 -0.48683,-0.22225 z"
       id="path694"
       style="stroke-width:0.264583" />
    <path
       class="st17"
       d="m 119.27825,138.454 c -0.52916,-0.29898 -1.05039,-0.62177 -1.51871,-1.01071 -0.4392,-0.38894 -0.78052,-0.87842 -1.1721,-1.2991 -1.4314,-1.54252 -1.08744,-3.43694 -0.15875,-5.06413 -0.09,-0.0688 -0.16933,-0.14023 -0.23812,-0.2196 -1.4605,1.68804 -1.96586,3.97933 -0.39423,5.93989 0.40745,0.5424 1.02129,0.86254 1.59808,1.17211 0.56092,0.32014 1.12977,0.59796 1.71715,0.83079 0.82285,0.33337 1.66687,0.58473 2.51618,0.8255 0.0106,-0.0291 0.0185,-0.0609 0.0317,-0.09 -0.81756,-0.31485 -1.63248,-0.6641 -2.3786,-1.08744 z"
       id="path696"
       style="stroke-width:0.264583" />
    <path
       class="st24"
       d="m 118.60886,127.95269 c 0.33866,0.30162 0.38364,0.80698 0.39687,1.26206 0.0106,0.39158 0.0106,0.79375 -0.11112,1.16681 -0.22225,0.68792 -0.96044,1.23561 -1.66159,1.06098 -3.0771,-0.76994 -0.40216,-5.08265 1.37848,-3.48985 z"
       id="path698"
       style="fill:#d75930;fill-opacity:1;stroke-width:0.264583" />
    <path
       class="st21"
       d="m 118.61679,127.9421 c 0.35719,0.32809 0.42598,0.84932 0.47096,1.30704 0.045,0.46038 0.0503,0.97103 -0.19579,1.41817 -0.36512,0.64029 -1.16152,1.02394 -1.86267,0.762 -1.4261,-0.35983 -1.66158,-1.83885 -0.89429,-2.9501 0.51329,-0.83609 1.70392,-1.29911 2.48444,-0.53711 v 0 z m -0.0159,0.0212 c -1.56369,-1.27794 -3.60892,1.91823 -2.13254,3.05329 0.79639,0.66675 1.78329,0.51065 2.23044,-0.44714 0.1852,-0.39159 0.19843,-0.85196 0.22489,-1.31498 0.0185,-0.44715 0.0344,-0.96573 -0.32279,-1.29117 z"
       id="path700"
       style="stroke-width:0.264583;fill:#d75930;fill-opacity:1" />
    <path
       class="st24"
       d="m 122.22307,138.72652 c -0.37836,0.33602 -0.64823,0.80962 -0.6694,1.31498 -0.0212,0.50535 0.24077,1.02923 0.69321,1.25412 0.32808,0.16405 0.70908,0.16405 1.07685,0.15875 0.29898,-0.003 0.62442,-0.0159 0.84931,-0.21166 0.28311,-0.24607 0.29634,-0.67469 0.2884,-1.0504 -0.008,-0.29898 -0.0185,-0.61119 -0.14817,-0.87842 -0.27252,-0.55562 -0.97631,-0.75935 -1.59543,-0.7276 l -0.49213,0.13758 z"
       id="path704"
       style="fill:#d75930;fill-opacity:1;stroke-width:0.264583" />
    <path
       class="st21"
       d="m 122.22836,138.73975 c -0.93663,0.93927 -0.68527,2.75167 0.86254,2.67494 0.33867,-0.008 0.75406,0.008 1.01335,-0.23019 0.35454,-0.381 0.22225,-1.016 0.17727,-1.48961 -0.15081,-0.92868 -1.29645,-1.16945 -2.05316,-0.95514 z m -0.0132,-0.0238 c 0.1561,-0.0661 0.32014,-0.12436 0.48419,-0.18786 0.381,-0.045 0.78316,-0.0106 1.14829,0.16934 0.59531,0.23812 0.78581,0.94191 0.74083,1.524 0.0344,0.635 -0.20108,1.28058 -0.93927,1.27793 -0.73554,0.0132 -1.66688,0.0582 -2.05317,-0.72231 -0.38629,-0.71967 -0.0238,-1.63512 0.61648,-2.06375 v 0 z"
       id="path706"
       style="stroke-width:0.264583;fill:#d75930;fill-opacity:1" />
    <path
       class="st26"
       d="m 135.19029,129.12479 c 0,0 0,-0.003 0,-0.005 0.10848,-0.73554 1.47638,-0.72231 1.97909,-0.60854 0.59796,0.13493 1.24883,0.5371 1.24354,1.15093 -0.005,0.56357 -0.61383,0.97103 -1.1774,0.96309 -0.67998,-0.008 -1.69598,-0.48419 -1.98173,-1.13771 -0.0503,-0.11377 -0.082,-0.23813 -0.0661,-0.36248 z"
       id="path710"
       style="fill:#2a4687;fill-opacity:1;stroke-width:0.264583" />
    <path
       class="st21"
       d="m 135.17707,129.12479 c 0.0503,-0.38365 0.44185,-0.59796 0.78052,-0.69585 0.92868,-0.33073 2.62466,0.2487 2.5056,1.41816 -0.44979,1.69334 -3.2729,0.762 -3.28612,-0.72231 z m 0.0265,0.003 c -0.0397,0.85725 1.73567,1.54252 2.42623,1.30704 0.46302,-0.13229 0.88371,-0.61384 0.66675,-1.10861 -0.20902,-0.48683 -0.79375,-0.68527 -1.27793,-0.73289 -0.55828,-0.0106 -1.651,-0.1905 -1.81505,0.53181 v 0 z"
       id="path712"
       style="stroke-width:0.264583;fill:#2a4687;fill-opacity:1" />
    <path
       class="st26"
       d="m 135.96817,140.8961 c 0.20373,0.48684 0.94192,0.53182 1.41817,0.30427 0.70643,-0.33602 1.7727,-1.93675 0.37835,-2.06639 -0.95779,-0.0873 -2.23837,0.70379 -1.79652,1.76212 z"
       id="path716"
       style="fill:#2a4687;fill-opacity:1;stroke-width:0.264583" />
    <path
       class="st21"
       d="m 135.9814,140.89081 c 0.60589,1.06098 2.77019,-0.39423 2.3495,-1.38906 -0.68263,-0.75406 -2.84956,0.29633 -2.3495,1.38906 z m -0.0238,0.0106 c -0.56886,-1.23825 1.03187,-2.20397 2.11402,-1.80975 0.61383,0.20903 0.44979,0.88107 0.19579,1.28853 -0.15611,0.27781 -0.33073,0.54768 -0.58473,0.76464 -0.48419,0.43921 -1.43669,0.37571 -1.72508,-0.24077 v 0 z"
       id="path718"
       style="stroke-width:0.264583;fill:#2a4687;fill-opacity:1" />
    <path
       class="st14"
       d="m 148.6814,138.454 c -0.2249,-0.127 -0.46567,-0.17992 -0.76465,-0.23548 -0.381,-0.0714 -0.86783,-0.0635 -1.05568,0.45773 -0.11113,0.30692 -0.0529,0.68527 0.0847,0.93927 0.13759,0.254 0.34396,0.40481 0.55034,0.52917 0.38893,0.23018 0.80168,0.38364 1.22502,0.45508 0.29368,0.0503 0.65616,0.0106 0.8202,-0.37571 0.21961,-0.51329 -0.0979,-0.99748 -0.33072,-1.29117 -0.18521,-0.23018 -0.35455,-0.37835 -0.53446,-0.47889 z"
       id="path722"
       style="fill:#a53237;fill-opacity:1;stroke-width:0.264583" />
    <path
       class="st21"
       d="m 148.67346,138.46458 c -0.42333,-0.20373 -1.00277,-0.28046 -1.42875,-0.0847 -0.39687,0.2487 -0.45244,0.84402 -0.23812,1.25412 0.16139,0.29633 0.48154,0.46038 0.7911,0.59002 0.43127,0.14288 0.9525,0.37042 1.38906,0.20108 0.68263,-0.46302 0.0503,-1.61925 -0.51329,-1.95791 v 0 z m 0.0132,-0.0212 c 0.57415,0.35718 1.25942,1.01335 1.01335,1.76477 -0.40216,1.1721 -2.30981,0.14816 -2.76754,-0.52917 -0.28575,-0.43392 -0.35189,-1.21708 0.20109,-1.50283 0.52123,-0.21961 1.07685,0.0609 1.55045,0.26723 v 0 z"
       id="path724"
       style="stroke-width:0.264583;fill:#a53237;fill-opacity:1" />
    <path
       class="st14"
       d="m 146.26575,131.50075 c 0.55563,0.5371 1.45786,0.93398 2.18811,0.46037 0.62441,-0.40745 1.24618,-1.3626 0.35189,-1.83091 -0.55827,-0.29369 -1.62189,-0.51594 -2.26218,-0.0767 -0.50536,0.34925 -0.67469,1.1086 -0.28575,1.44198 0,0 0.005,0.003 0.008,0.005 z"
       id="path728"
       style="fill:#a53237;fill-opacity:1;stroke-width:0.264583" />
    <path
       class="st21"
       d="m 146.27369,131.49017 c 0.62706,0.59795 1.69333,0.79639 2.3839,0.21695 0.38893,-0.27781 0.78581,-0.9181 0.36777,-1.32556 -0.74613,-0.51594 -2.20663,-0.72231 -2.78077,0.14552 -0.18521,0.28046 -0.2593,0.71702 0.0291,0.96309 z m -0.0185,0.0185 c -0.30163,-0.254 -0.30427,-0.71438 -0.16404,-1.06098 0.40746,-1.00013 1.75948,-0.889 2.57175,-0.50536 0.64294,0.26723 0.81227,0.84138 0.43656,1.42346 -0.75671,1.28588 -1.89706,1.09802 -2.84162,0.14288 v 0 z"
       id="path730"
       style="stroke-width:0.264583;fill:#a53237;fill-opacity:1" />
    <path
       class="st19"
       d="m 125.42188,122.21652 c -0.0423,0.39423 -0.0344,0.80962 0.14552,1.15887 0.36512,0.70909 1.32556,0.91282 2.0955,0.70644 0.17198,-0.045 0.34925,-0.11377 0.46831,-0.24606 0.12436,-0.13758 0.16933,-0.32808 0.1905,-0.51329 0.26194,-2.14577 -2.58498,-4.00579 -2.89983,-1.10861 z"
       id="path734"
       style="fill:#e9bf49;fill-opacity:1;stroke-width:0.264583" />
    <path
       class="st21"
       d="m 125.43511,122.21652 c -0.14552,0.87048 0.37835,1.62983 1.24089,1.79123 0.45773,0.0952 1.09273,0.14552 1.44727,-0.2249 0.17992,-0.254 0.1614,-0.59266 0.13759,-0.889 -0.19579,-1.76212 -2.4765,-3.175 -2.82575,-0.67468 v 0 z m -0.0238,-0.003 c 0.1958,-2.89718 2.98715,-1.41287 2.99773,0.6694 -0.005,0.42069 -0.0397,0.96308 -0.48418,1.15358 -0.39952,0.17463 -0.84402,0.25136 -1.28852,0.18786 -1.06098,-0.15346 -1.38113,-1.06098 -1.22503,-2.01084 z"
       id="path736"
       style="stroke-width:0.264583;fill:#e9bf49;fill-opacity:1" />
    <path
       class="st19"
       d="m 131.57079,138.34552 c -0.28575,0.0767 -0.53181,0.24342 -0.66939,0.53975 -0.11377,0.24606 -0.14288,0.52652 -0.13758,0.79904 0.005,0.21696 0.0317,0.43921 0.14816,0.62177 0.13229,0.21167 0.36777,0.34396 0.60325,0.42598 0.50006,0.17463 1.08215,0.1614 1.52929,-0.12171 0.44715,-0.2831 0.71702,-0.85989 0.56357,-1.36525 -0.12171,-0.39687 -0.47361,-0.69056 -0.86519,-0.8255 -0.3519,-0.12171 -0.7964,-0.17462 -1.17211,-0.0714 z"
       id="path740"
       style="fill:#e9bf49;fill-opacity:1;stroke-width:0.264583" />
    <path
       class="st21"
       d="m 131.57609,138.3561 c -0.76465,0.17992 -0.7673,1.13507 -0.635,1.75154 0.20108,0.65617 1.19591,0.83609 1.77535,0.5768 0.61383,-0.23813 1.02394,-1.01865 0.66675,-1.60338 -0.34925,-0.56092 -1.15094,-0.87312 -1.80975,-0.72496 v 0 z m -0.008,-0.0238 c 0.88106,-0.25665 2.20927,0.0847 2.2225,1.19327 -0.003,0.60061 -0.45773,1.16152 -1.02658,1.29646 -0.65617,0.1561 -1.72244,0.0476 -2.032,-0.64029 -0.254,-0.71173 0.0318,-1.68011 0.83608,-1.84944 z"
       id="path742"
       style="stroke-width:0.264583;fill:#e9bf49;fill-opacity:1" />
  </g>
</svg>
