<svg width="270" height="72" viewBox="0 0 270 72" fill="none" xmlns="http://www.w3.org/2000/svg">
<path d="M143.833 36.1016H154.857V38.8199H147.075V41.9699H154.22V44.4801H147.075V48.0844H155.024V50.8028H143.833V36.1016Z" fill="#101010"/>
<path d="M156.904 40.1549H159.69V41.6391H159.751C160.495 40.4465 161.775 39.8672 163.012 39.8672C166.129 39.8672 166.915 41.6163 166.915 44.2514V50.7975H163.984V44.7853C163.984 43.0361 163.468 42.1691 162.105 42.1691C160.514 42.1691 159.835 43.055 159.835 45.2169V50.7975H156.904V40.1511V40.1549Z" fill="#101010"/>
<path d="M176.414 43.9031C176.228 42.7105 175.465 42.0707 174.246 42.0707C172.367 42.0707 171.748 43.9637 171.748 45.5311C171.748 47.0985 172.348 48.8856 174.185 48.8856C175.548 48.8856 176.334 48.0223 176.52 46.7237H179.348C178.976 49.5443 177.014 51.089 174.208 51.089C170.989 51.089 168.821 48.825 168.821 45.6333C168.821 42.4417 170.803 39.8672 174.273 39.8672C176.79 39.8672 179.102 41.1847 179.288 43.9031H176.418H176.414Z" fill="#101010"/>
<path d="M186.178 39.8672C189.542 39.8672 191.709 42.0896 191.709 45.4895C191.709 48.8893 189.542 51.089 186.178 51.089C182.814 51.089 180.666 48.8666 180.666 45.4895C180.666 42.1123 182.833 39.8672 186.178 39.8672ZM186.178 48.8856C188.179 48.8856 188.779 47.178 188.779 45.4895C188.779 43.8009 188.179 42.0707 186.178 42.0707C184.177 42.0707 183.596 43.7782 183.596 45.4895C183.596 47.2008 184.196 48.8856 186.178 48.8856Z" fill="#101010"/>
<path d="M193.611 40.1549H196.398V41.6391H196.459C197.203 40.4465 198.482 39.8672 199.72 39.8672C202.837 39.8672 203.623 41.6163 203.623 44.2514V50.7975H200.692V44.7853C200.692 43.0361 200.175 42.1691 198.812 42.1691C197.222 42.1691 196.542 43.055 196.542 45.2169V50.7975H193.611V40.1511V40.1549Z" fill="#101010"/>
<path d="M209.572 40.1564H211.721V42.1138H209.572V47.3839C209.572 48.3721 209.819 48.6182 210.81 48.6182C211.121 48.6182 211.409 48.5993 211.717 48.5349V50.8217C211.223 50.905 210.582 50.9239 210.005 50.9239C208.209 50.9239 206.641 50.5112 206.641 48.391V42.11H204.864V40.1526H206.641V36.9609H209.572V40.1526V40.1564Z" fill="#101010"/>
<path d="M213.122 40.1549H215.908V42.1312H215.95C216.485 40.791 217.932 39.8672 219.355 39.8672C219.56 39.8672 219.811 39.9088 219.997 39.9694V42.6878C219.727 42.6272 219.295 42.5856 218.945 42.5856C216.797 42.5856 216.056 44.1303 216.056 46.0044V50.8013H213.125V40.1549H213.122Z" fill="#101010"/>
<path d="M226.337 39.8672C229.701 39.8672 231.869 42.0896 231.869 45.4895C231.869 48.8893 229.701 51.089 226.337 51.089C222.974 51.089 220.825 48.8666 220.825 45.4895C220.825 42.1123 222.992 39.8672 226.337 39.8672ZM226.337 48.8856C228.338 48.8856 228.938 47.178 228.938 45.4895C228.938 43.8009 228.338 42.0707 226.337 42.0707C224.336 42.0707 223.756 43.7782 223.756 45.4895C223.756 47.2008 224.355 48.8856 226.337 48.8856Z" fill="#101010"/>
<path d="M143.833 56.8789H147.075V71.5801H143.833V56.8789Z" fill="#101010"/>
<path d="M149.614 60.9323H152.401V62.4164H152.462C153.206 61.2238 154.485 60.6445 155.723 60.6445C158.84 60.6445 159.626 62.3937 159.626 65.0288V71.5749H156.695V65.5626C156.695 63.8135 156.178 62.9465 154.815 62.9465C153.225 62.9465 152.545 63.8324 152.545 65.9942V71.5749H149.614V60.9285V60.9323Z" fill="#101010"/>
<path d="M165.575 60.9337H167.724V62.8911H165.575V68.1613C165.575 69.1494 165.822 69.3955 166.812 69.3955C167.124 69.3955 167.412 69.3766 167.72 69.3122V71.599C167.226 71.6823 166.585 71.7012 166.008 71.7012C164.212 71.7012 162.644 71.2886 162.644 69.1684V62.8873H160.867V60.9299H162.644V57.7383H165.575V60.9299V60.9337Z" fill="#101010"/>
<path d="M171.543 66.9633C171.626 68.8147 172.534 69.659 174.166 69.659C175.343 69.659 176.292 68.9396 176.478 68.2809H179.06C178.232 70.791 176.478 71.8625 174.064 71.8625C170.7 71.8625 168.612 69.5568 168.612 66.2629C168.612 62.969 170.821 60.6406 174.064 60.6406C177.697 60.6406 179.451 63.6884 179.246 66.9633H171.546H171.543ZM176.311 65.112C176.041 63.6278 175.404 62.8479 173.98 62.8479C172.124 62.8479 171.584 64.2904 171.543 65.112H176.311Z" fill="#101010"/>
<path d="M180.977 60.9323H183.764V62.9086H183.805C184.341 61.5683 185.787 60.6445 187.211 60.6445C187.416 60.6445 187.666 60.6862 187.852 60.7468V63.4651C187.583 63.4046 187.15 63.3629 186.801 63.3629C184.652 63.3629 183.912 64.9076 183.912 66.7817V71.5786H180.981V60.9323H180.977Z" fill="#101010"/>
<path d="M189.006 60.9323H191.793V62.4164H191.854C192.598 61.2238 193.877 60.6445 195.115 60.6445C198.232 60.6445 199.018 62.3937 199.018 65.0288V71.5749H196.087V65.5626C196.087 63.8135 195.57 62.9465 194.207 62.9465C192.617 62.9465 191.937 63.8324 191.937 65.9942V71.5749H189.006V60.9285V60.9323Z" fill="#101010"/>
<path d="M201.129 64.2072C201.292 61.4699 203.752 60.6445 206.144 60.6445C208.27 60.6445 210.829 61.1178 210.829 63.6696V69.2086C210.829 70.1778 210.931 71.1432 211.201 71.5749H208.228C208.126 71.2455 208.042 70.8972 208.023 70.5451C207.093 71.5143 205.73 71.8626 204.432 71.8626C202.408 71.8626 200.798 70.8517 200.798 68.671C200.798 66.263 202.617 65.6838 204.432 65.4377C206.227 65.1689 207.902 65.2332 207.902 64.0368C207.902 62.7799 207.036 62.5944 206.003 62.5944C204.887 62.5944 204.166 63.0487 204.063 64.1996H201.132L201.129 64.2072ZM207.898 66.369C207.404 66.8006 206.372 66.8234 205.46 66.9862C204.553 67.1717 203.725 67.4784 203.725 68.5498C203.725 69.6213 204.572 69.909 205.521 69.909C207.814 69.909 207.894 68.0955 207.894 67.4594V66.369H207.898Z" fill="#101010"/>
<path d="M220.369 64.6805C220.183 63.4879 219.42 62.848 218.201 62.848C216.322 62.848 215.703 64.741 215.703 66.3085C215.703 67.8759 216.303 69.6629 218.14 69.6629C219.503 69.6629 220.289 68.7997 220.475 67.5011H223.303C222.931 70.3217 220.969 71.8664 218.163 71.8664C214.944 71.8664 212.776 69.6023 212.776 66.4107C212.776 63.219 214.758 60.6445 218.228 60.6445C220.745 60.6445 223.057 61.9621 223.243 64.6805H220.373H220.369Z" fill="#101010"/>
<path d="M227.966 59.2868H225.035V56.8789H227.966V59.2868ZM225.035 60.9338H227.966V71.5801H225.035V60.9338Z" fill="#101010"/>
<path d="M235.46 60.6445C238.823 60.6445 240.991 62.8669 240.991 66.2668C240.991 69.6667 238.823 71.8664 235.46 71.8664C232.096 71.8664 229.947 69.644 229.947 66.2668C229.947 62.8897 232.115 60.6445 235.46 60.6445ZM235.46 69.6629C237.46 69.6629 238.06 67.9554 238.06 66.2668C238.06 64.5782 237.46 62.848 235.46 62.848C233.459 62.848 232.878 64.5555 232.878 66.2668C232.878 67.9781 233.478 69.6629 235.46 69.6629Z" fill="#101010"/>
<path d="M242.894 60.9323H245.68V62.4164H245.741C246.485 61.2238 247.764 60.6445 249.002 60.6445C252.119 60.6445 252.905 62.3937 252.905 65.0288V71.5749H249.974V65.5626C249.974 63.8135 249.458 62.9465 248.095 62.9465C246.504 62.9465 245.824 63.8324 245.824 65.9942V71.5749H242.894V60.9285V60.9323Z" fill="#101010"/>
<path d="M255.011 64.2072C255.175 61.4699 257.635 60.6445 260.027 60.6445C262.153 60.6445 264.711 61.1178 264.711 63.6696V69.2086C264.711 70.1778 264.814 71.1432 265.083 71.5749H262.111C262.008 71.2455 261.925 70.8972 261.906 70.5451C260.976 71.5143 259.613 71.8626 258.314 71.8626C256.291 71.8626 254.681 70.8517 254.681 68.671C254.681 66.263 256.5 65.6838 258.314 65.4377C260.11 65.1689 261.784 65.2332 261.784 64.0368C261.784 62.7799 260.919 62.5944 259.886 62.5944C258.77 62.5944 258.049 63.0487 257.946 64.1996H255.015L255.011 64.2072ZM261.784 66.369C261.291 66.8006 260.258 66.8234 259.347 66.9862C258.44 67.1717 257.612 67.4784 257.612 68.5498C257.612 69.6213 258.459 69.909 259.408 69.909C261.701 69.909 261.78 68.0955 261.78 67.4594V66.369H261.784Z" fill="#101010"/>
<path d="M267.069 56.8789H270V71.5801H267.069V56.8789Z" fill="#101010"/>
<path d="M128.767 19.5786V43.0024C128.385 42.3751 127.927 41.809 127.393 41.3041V8.8995H125.911V40.1872C125.483 39.9271 125.025 39.6976 124.536 39.514V8.8995H123.039V39.0398C122.596 38.9327 122.138 38.8562 121.664 38.795V17.8039H120.183V38.6879C120.091 38.6879 119.984 38.6879 119.893 38.6879H118.808V19.0278H117.326V38.6879H115.952V19.0278H114.47V38.6879H113.095V34.4958H111.614V38.6879H110.239V34.4958H108.742V38.6879H107.367V34.4958H105.885V42.9412C105.504 42.3598 105.045 41.809 104.511 41.2888V34.4346H103.014V40.0801C102.586 39.8047 102.128 39.5446 101.639 39.3152V34.4346H100.142V38.7338C99.6992 38.5961 99.2409 38.4737 98.7674 38.3666V34.4346H97.2857V38.1218C96.8427 38.0759 96.3845 38.0453 95.911 38.03V27.9322H94.414V38.0453C93.9405 38.0606 93.4823 38.1065 93.0393 38.1524V9.00659H91.5424V38.3666C91.0688 38.4584 90.6106 38.5808 90.1676 38.7032V9.00659H88.686V39.254C88.1972 39.4681 87.7389 39.6976 87.3112 39.9424V30.7321H85.8143V40.9981C85.2949 41.4571 84.8367 41.962 84.4395 42.4975V34.9089H82.9579V41.6254C82.5302 41.2276 82.0567 40.8757 81.5831 40.5391V34.9089H80.0862V39.6364C79.6432 39.4069 79.185 39.1928 78.7115 39.0092V29.0491H77.2145V38.5043C76.7716 38.3819 76.3133 38.2595 75.8398 38.183V34.9242H74.3428V37.9688C73.8999 37.9229 73.4264 37.9076 72.9681 37.8923V36.7907H71.4865V37.9229C71.0282 37.9535 70.57 37.9994 70.1117 38.0759V36.5918H68.63V38.3819C68.1718 38.5043 67.6983 38.642 67.2553 38.8103V27.1519H65.7736V39.4528C65.3001 39.6823 64.8419 39.9424 64.3989 40.2331V26.5094H62.9172V41.3194C62.4437 41.7172 61.9702 42.1303 61.5425 42.5893V11.2862H60.0456V44.3946C59.5262 45.1137 59.068 45.8787 58.6708 46.6896V0.132812H57.1892V50.897C56.8837 49.4588 56.4254 48.0971 55.8144 46.8273V11.2709H54.3175V44.3181C53.8898 43.7367 53.4315 43.186 52.9427 42.6658V17.7886H51.4611V41.2888C51.0181 40.9369 50.5599 40.6003 50.0863 40.2943V17.8345H48.5894V39.4528C48.1464 39.2387 47.6882 39.0398 47.2147 38.8562V20.1447H45.7177V38.3972C45.2748 38.2748 44.8165 38.183 44.343 38.1065V20.1447H42.846V37.9382C42.4794 37.9076 42.0976 37.8923 41.7157 37.8923C41.6393 37.8923 41.563 37.8923 41.4713 37.8923V11.2556H39.9896V37.9841C39.5314 38.03 39.0579 38.1065 38.6149 38.183V11.2556H37.118V38.5502C36.6444 38.6879 36.1862 38.8562 35.7432 39.0398V6.54335H34.2616V39.7588C33.788 40.0189 33.3298 40.2943 32.8868 40.6003V6.54335H31.3899V41.7631C30.9011 42.1915 30.4428 42.6505 30.0151 43.1401V6.54335H28.5335V45.129C27.9989 45.9552 27.5406 46.8579 27.1587 47.7911V22.6386H25.6771V48.5714C25.3258 47.424 24.8675 46.353 24.3023 45.3891V22.6539H22.8054V43.2931C22.3777 42.8035 21.9195 42.3445 21.4307 41.9314V13.2752H19.9337V40.8451C19.4907 40.5697 19.0325 40.3249 18.559 40.1107V13.2293H17.062V39.514C16.6191 39.3763 16.1608 39.2386 15.6873 39.1315V13.214H14.2056V38.8715C13.7627 38.8103 13.3044 38.7797 12.8309 38.7491V17.3449H11.334V38.7185H9.95922V20.9556H8.47756V38.7185H7.10282V19.3644H5.62116V38.7185H4.24642V26.6777H2.76475V38.7185H1.39001V28.8349H0V71.1231H12.0213C19.674 71.1231 24.9744 66.4567 26.3186 58.8528C27.9378 66.2731 33.9408 71.6892 41.7768 71.6892C49.6128 71.6892 55.6922 66.1507 57.235 58.608C58.8083 66.1813 64.9488 71.6892 72.5557 71.6892C77.2451 71.6892 81.2165 69.639 83.9966 66.3955C86.4558 69.8685 90.9925 71.475 95.2847 71.475C100.493 71.475 104.48 69.8685 106.665 67.0687V70.0215H112.637V58.8222H120.015C126.018 58.8222 129.974 54.8902 130.218 49.367V19.5939H128.737L128.767 19.5786ZM12.0366 65.3704H6.18633V44.4558H12.0366C19.002 44.4558 20.4989 50.1014 20.4989 54.8749C20.4989 58.7916 19.3686 65.3704 12.0366 65.3704ZM41.7921 65.8294C36.4153 65.8294 32.1078 60.8417 32.1078 54.7678C32.1078 48.6938 36.4153 43.752 41.7921 43.752C47.1688 43.752 51.4305 48.755 51.4305 54.7678C51.4305 60.7805 47.123 65.8294 41.7921 65.8294ZM95.3153 65.86C92.077 65.86 88.2735 64.0699 88.2735 60.2756H80.8347C79.628 63.2744 76.2675 66.0589 72.5862 66.0589C67.24 66.0589 63.0394 60.9335 63.0394 54.7678C63.0394 48.602 67.24 43.5225 72.5862 43.5225C76.3286 43.5225 79.2155 45.7104 80.6819 48.6632H83.0343C83.7522 54.4618 89.3581 56.0682 94.8876 57.1545C100.814 58.302 102.479 59.5565 102.479 61.5914C102.479 64.636 98.8285 65.8753 95.3153 65.8753V65.86ZM106.695 55.8081C104.633 53.4826 100.936 52.381 96.1401 51.4019C91.2369 50.3921 89.0678 49.6118 89.0678 47.3934C89.0678 44.9454 92.077 43.7061 95.3153 43.7061C99.1951 43.7061 101.517 45.7869 101.517 48.5561H106.71V55.8234L106.695 55.8081ZM119.862 53.3449H112.668V44.2263H119.862C122.627 44.2263 124.292 45.6186 124.292 48.7856C124.292 51.9526 122.611 53.3449 119.862 53.3449Z" fill="#101010"/>
</svg>
