<svg width="60" height="54" viewBox="0 0 60 54" fill="none" xmlns="http://www.w3.org/2000/svg">
<path d="M0.681641 36.9219H5.70746V38.1691H2.15962V39.6144H5.41671V40.7661H2.15962V42.4199H5.7836V43.6671H0.681641V36.9219Z" fill="#101010"/>
<path d="M6.64062 38.7844H7.91092V39.4653H7.93861C8.27782 38.9181 8.86105 38.6523 9.42525 38.6523C10.8461 38.6523 11.2044 39.4549 11.2044 40.6639V43.6674H9.86829V40.9089C9.86829 40.1063 9.63292 39.7085 9.01162 39.7085C8.28648 39.7085 7.97669 40.115 7.97669 41.1069V43.6674H6.64062V38.7826V38.7844Z" fill="#101010"/>
<path d="M15.5345 40.5022C15.4497 39.955 15.1019 39.6614 14.5463 39.6614C13.6897 39.6614 13.4076 40.53 13.4076 41.2491C13.4076 41.9683 13.681 42.7882 14.5187 42.7882C15.14 42.7882 15.4982 42.3922 15.583 41.7963H16.8723C16.7027 43.0905 15.808 43.7992 14.529 43.7992C13.0614 43.7992 12.0732 42.7604 12.0732 41.296C12.0732 39.8316 12.9766 38.6504 14.5585 38.6504C15.7059 38.6504 16.7616 39.2549 16.8447 40.5022H15.5363H15.5345Z" fill="#101010"/>
<path d="M19.9856 38.6523C21.5189 38.6523 22.5071 39.672 22.5071 41.232C22.5071 42.7919 21.5189 43.8012 19.9856 43.8012C18.4522 43.8012 17.4727 42.7815 17.4727 41.232C17.4727 39.6825 18.4609 38.6523 19.9856 38.6523ZM19.9856 42.7884C20.8976 42.7884 21.1711 42.005 21.1711 41.2302C21.1711 40.4555 20.8976 39.6616 19.9856 39.6616C19.0735 39.6616 18.8087 40.4451 18.8087 41.2302C18.8087 42.0154 19.0822 42.7884 19.9856 42.7884Z" fill="#101010"/>
<path d="M23.374 38.7844H24.6443V39.4653H24.672C25.0112 38.9181 25.5944 38.6523 26.1586 38.6523C27.5795 38.6523 27.9378 39.4549 27.9378 40.6639V43.6674H26.6017V40.9089C26.6017 40.1063 26.3663 39.7085 25.745 39.7085C25.0199 39.7085 24.7101 40.115 24.7101 41.1069V43.6674H23.374V38.7826V38.7844Z" fill="#101010"/>
<path d="M30.6499 38.7845H31.6295V39.6826H30.6499V42.1007C30.6499 42.5541 30.7624 42.667 31.2141 42.667C31.356 42.667 31.4876 42.6583 31.6277 42.6288V43.678C31.4028 43.7162 31.1103 43.7249 30.8472 43.7249C30.0286 43.7249 29.3139 43.5355 29.3139 42.5628V39.6809H28.5039V38.7828H29.3139V37.3184H30.6499V38.7828V38.7845Z" fill="#101010"/>
<path d="M32.2681 38.7844H33.5384V39.6911H33.5574C33.8014 39.0762 34.4608 38.6523 35.1098 38.6523C35.2033 38.6523 35.3175 38.6715 35.4023 38.6992V39.9465C35.2794 39.9187 35.0821 39.8996 34.9229 39.8996C33.9433 39.8996 33.6059 40.6084 33.6059 41.4682V43.6692H32.2698V38.7844H32.2681Z" fill="#101010"/>
<path d="M38.2922 38.6523C39.8256 38.6523 40.8138 39.672 40.8138 41.232C40.8138 42.7919 39.8256 43.8012 38.2922 43.8012C36.7588 43.8012 35.7793 42.7815 35.7793 41.232C35.7793 39.6825 36.7675 38.6523 38.2922 38.6523ZM38.2922 42.7884C39.2043 42.7884 39.4777 42.005 39.4777 41.2302C39.4777 40.4555 39.2043 39.6616 38.2922 39.6616C37.3801 39.6616 37.1154 40.4451 37.1154 41.2302C37.1154 42.0154 37.3888 42.7884 38.2922 42.7884Z" fill="#101010"/>
<path d="M0.681641 46.4551H2.15962V53.2004H0.681641V46.4551Z" fill="#101010"/>
<path d="M3.31787 48.3176H4.58817V48.9985H4.61586C4.95507 48.4513 5.5383 48.1855 6.10249 48.1855C7.52336 48.1855 7.8816 48.9881 7.8816 50.1971V53.2006H6.54554V50.4421C6.54554 49.6395 6.31017 49.2417 5.68887 49.2417C4.96372 49.2417 4.65393 49.6482 4.65393 50.6401V53.2006H3.31787V48.3158V48.3176Z" fill="#101010"/>
<path d="M10.5933 48.3177H11.5728V49.2158H10.5933V51.6339C10.5933 52.0873 10.7058 52.2002 11.1575 52.2002C11.2994 52.2002 11.4309 52.1915 11.5711 52.162V53.2112C11.3461 53.2494 11.0536 53.2581 10.7906 53.2581C9.97197 53.2581 9.25721 53.0687 9.25721 52.096V49.2141H8.44727V48.316H9.25721V46.8516H10.5933V48.316V48.3177Z" fill="#101010"/>
<path d="M13.3141 51.0846C13.3522 51.9341 13.7658 52.3214 14.51 52.3214C15.0465 52.3214 15.4791 51.9914 15.5639 51.6891H16.7408C16.3635 52.8408 15.5639 53.3324 14.4632 53.3324C12.9299 53.3324 11.978 52.2745 11.978 50.7632C11.978 49.2519 12.9853 48.1836 14.4632 48.1836C16.1195 48.1836 16.919 49.582 16.8256 51.0846H13.3158H13.3141ZM15.4878 50.2334C15.3649 49.5524 15.0742 49.1946 14.4252 49.1946C13.5789 49.1946 13.3331 49.8564 13.3141 50.2334H15.4878Z" fill="#101010"/>
<path d="M17.6147 48.3176H18.885V49.2243H18.9041C19.1481 48.6094 19.8075 48.1855 20.4565 48.1855C20.5499 48.1855 20.6642 48.2047 20.749 48.2324V49.4797C20.6261 49.4519 20.4288 49.4328 20.2696 49.4328C19.29 49.4328 18.9525 50.1416 18.9525 51.0014V53.2024H17.6165V48.3176H17.6147Z" fill="#101010"/>
<path d="M21.2749 48.3176H22.5452V48.9985H22.5729C22.9121 48.4513 23.4953 48.1855 24.0595 48.1855C25.4804 48.1855 25.8386 48.9881 25.8386 50.1971V53.2006H24.5026V50.4421C24.5026 49.6395 24.2672 49.2417 23.6459 49.2417C22.9208 49.2417 22.611 49.6482 22.611 50.6401V53.2006H21.2749V48.3158V48.3176Z" fill="#101010"/>
<path d="M26.801 49.8182C26.8771 48.5623 27.9968 48.1836 29.0871 48.1836C30.0563 48.1836 31.2228 48.4007 31.2228 49.5716V52.113C31.2228 52.5577 31.2695 53.0007 31.3924 53.1987H30.0373C29.9905 53.0476 29.9525 52.8877 29.9438 52.7262C29.5198 53.1709 28.8985 53.3307 28.3066 53.3307C27.3842 53.3307 26.6504 52.8669 26.6504 51.8663C26.6504 50.7615 27.4794 50.4957 28.3066 50.3828C29.1252 50.2595 29.8884 50.289 29.8884 49.7401C29.8884 49.1633 29.4939 49.0782 29.0231 49.0782C28.5143 49.0782 28.1855 49.2867 28.1388 49.8148H26.8027L26.801 49.8182ZM29.8867 50.8101C29.66 51.0082 29.191 51.0186 28.7756 51.0933C28.362 51.1784 27.9847 51.3191 27.9847 51.8107C27.9847 52.3023 28.3707 52.4344 28.8033 52.4344C29.8486 52.4344 29.885 51.6023 29.885 51.3104V50.8101H29.8867Z" fill="#101010"/>
<path d="M35.5717 50.0354C35.4869 49.4882 35.139 49.1946 34.5835 49.1946C33.7268 49.1946 33.4447 50.0632 33.4447 50.7823C33.4447 51.5015 33.7181 52.3214 34.5558 52.3214C35.1771 52.3214 35.5353 51.9254 35.6201 51.3295H36.9095C36.7399 52.6237 35.8451 53.3324 34.5661 53.3324C33.0986 53.3324 32.1104 52.2936 32.1104 50.8292C32.1104 49.3648 33.0138 48.1836 34.5956 48.1836C35.743 48.1836 36.797 48.7881 36.8818 50.0354H35.5734H35.5717Z" fill="#101010"/>
<path d="M39.0348 47.5599H37.6987V46.4551H39.0348V47.5599ZM37.6987 48.3173H39.0348V53.2021H37.6987V48.3173Z" fill="#101010"/>
<path d="M42.4514 48.1836C43.9847 48.1836 44.9729 49.2033 44.9729 50.7632C44.9729 52.3232 43.9847 53.3324 42.4514 53.3324C40.918 53.3324 39.9385 52.3128 39.9385 50.7632C39.9385 49.2137 40.9267 48.1836 42.4514 48.1836ZM42.4514 52.3214C43.3634 52.3214 43.6369 51.538 43.6369 50.7632C43.6369 49.9885 43.3634 49.1946 42.4514 49.1946C41.5393 49.1946 41.2745 49.978 41.2745 50.7632C41.2745 51.5484 41.548 52.3214 42.4514 52.3214Z" fill="#101010"/>
<path d="M45.8398 48.3176H47.1101V48.9985H47.1378C47.477 48.4513 48.0603 48.1855 48.6245 48.1855C50.0453 48.1855 50.4036 48.9881 50.4036 50.1971V53.2006H49.0675V50.4421C49.0675 49.6395 48.8321 49.2417 48.2108 49.2417C47.4857 49.2417 47.1759 49.6482 47.1759 50.6401V53.2006H45.8398V48.3158V48.3176Z" fill="#101010"/>
<path d="M51.3639 49.8182C51.4384 48.5623 52.5598 48.1836 53.6501 48.1836C54.6193 48.1836 55.7858 48.4007 55.7858 49.5716V52.113C55.7858 52.5577 55.8325 53.0007 55.9554 53.1987H54.6003C54.5535 53.0476 54.5155 52.8877 54.5068 52.7262C54.0828 53.1709 53.4615 53.3307 52.8696 53.3307C51.9472 53.3307 51.2134 52.8669 51.2134 51.8663C51.2134 50.7615 52.0424 50.4957 52.8696 50.3828C53.6882 50.2595 54.4514 50.289 54.4514 49.7401C54.4514 49.1633 54.0568 49.0782 53.5861 49.0782C53.0773 49.0782 52.7485 49.2867 52.7017 49.8148H51.3657L51.3639 49.8182ZM54.4514 50.8101C54.2264 51.0082 53.7557 51.0186 53.3403 51.0933C52.9267 51.1784 52.5494 51.3191 52.5494 51.8107C52.5494 52.3023 52.9354 52.4344 53.368 52.4344C54.4134 52.4344 54.4497 51.6023 54.4497 51.3104V50.8101H54.4514Z" fill="#101010"/>
<path d="M56.8604 46.4551H58.1964V53.2004H56.8604V46.4551Z" fill="#101010"/>
<path d="M59.3314 8.97378V19.7833C59.1554 19.4938 58.9443 19.2326 58.6979 18.9996V4.04561H58.0152V18.4842C57.8182 18.3641 57.607 18.2582 57.3818 18.1735V4.04561H56.6921V17.9546C56.488 17.9052 56.2768 17.8699 56.0587 17.8417V8.15477H55.376V17.7922C55.3337 17.7922 55.2845 17.7922 55.2422 17.7922H54.7425V8.71961H54.0598V17.7922H53.4264V8.71961H52.7437V17.7922H52.1103V15.8577H51.4276V17.7922H50.7941V15.8577H50.1044V17.7922H49.471V15.8577H48.7883V19.755C48.6123 19.4867 48.4012 19.2326 48.1548 18.9925V15.8294H47.4651V18.4347C47.268 18.3076 47.0569 18.1876 46.8317 18.0817V15.8294H46.1419V17.8134C45.9378 17.7499 45.7267 17.6934 45.5085 17.644V15.8294H44.8258V17.531C44.6217 17.5098 44.4106 17.4957 44.1924 17.4886V12.8288H43.5026V17.4957C43.2845 17.5028 43.0733 17.5239 42.8692 17.5451V4.09504H42.1795V17.644C41.9613 17.6863 41.7501 17.7428 41.546 17.7993V4.09504H40.8633V18.0535C40.6381 18.1523 40.427 18.2582 40.2299 18.3712V14.1208H39.5402V18.8584C39.3009 19.0702 39.0897 19.3032 38.9067 19.5503V16.0483H38.224V19.1478C38.027 18.9643 37.8088 18.8019 37.5906 18.6465V16.0483H36.9009V18.23C36.6968 18.1241 36.4856 18.0252 36.2674 17.9405V13.3442H35.5777V17.7075C35.3736 17.651 35.1625 17.5945 34.9443 17.5592V16.0554H34.2545V17.4604C34.0504 17.4392 33.8323 17.4321 33.6211 17.4251V16.9167H32.9384V17.4392C32.7273 17.4533 32.5161 17.4745 32.305 17.5098V16.825H31.6223V17.651C31.4111 17.7075 31.193 17.771 30.9889 17.8487V12.4687H30.3062V18.1453C30.088 18.2512 29.8768 18.3712 29.6727 18.5053V12.1721H28.99V19.0066C28.7718 19.1902 28.5537 19.3808 28.3566 19.5926V5.14704H27.6669V20.4258C27.4276 20.7576 27.2164 21.1106 27.0334 21.4848V0H26.3507V23.4264C26.21 22.7628 25.9988 22.1344 25.7173 21.5484V5.13998H25.0276V20.3905C24.8305 20.1222 24.6194 19.868 24.3941 19.6279V8.14771H23.7114V18.9925C23.5073 18.8301 23.2962 18.6748 23.078 18.5336V8.16889H22.3883V18.1453C22.1842 18.0464 21.973 17.9546 21.7548 17.8699V9.23501H21.0651V17.6581C20.861 17.6016 20.6499 17.5592 20.4317 17.5239V9.23501H19.7419V17.4463C19.573 17.4321 19.3971 17.4251 19.2211 17.4251C19.1859 17.4251 19.1507 17.4251 19.1085 17.4251V5.13292H18.4258V17.4675C18.2147 17.4886 17.9965 17.5239 17.7924 17.5592V5.13292H17.1026V17.7287C16.8845 17.7922 16.6733 17.8699 16.4692 17.9546V2.95831H15.7865V18.2865C15.5683 18.4065 15.3572 18.5336 15.1531 18.6748V2.95831H14.4633V19.2114C14.2381 19.4091 14.027 19.6209 13.8299 19.8468V2.95831H13.1472V20.7647C12.9009 21.1459 12.6897 21.5625 12.5138 21.9932V10.3859H11.8311V22.3533C11.6692 21.8237 11.4581 21.3295 11.1977 20.8847V10.3929H10.5079V19.9174C10.3109 19.6915 10.0997 19.4797 9.87449 19.289V6.06489H9.18475V18.7877C8.98065 18.6607 8.7695 18.5477 8.55132 18.4489V6.04371H7.86158V18.1735C7.65748 18.1099 7.44633 18.0464 7.22815 17.997V6.03665H6.54545V17.877C6.34135 17.8487 6.1302 17.8346 5.91202 17.8205V7.94296H5.22229V17.8064H4.58886V9.60922H3.90616V17.8064H3.27273V8.87493H2.59003V17.8064H1.9566V12.2498H1.2739V17.8064H0.640469V13.2453H0V32.7603H5.539C9.0651 32.7603 11.5073 30.6069 12.1267 27.0979C12.8727 30.5222 15.6387 33.0215 19.2493 33.0215C22.8598 33.0215 25.661 30.4657 26.3718 26.9849C27.0968 30.4798 29.9261 33.0215 33.4311 33.0215C35.5918 33.0215 37.4217 32.0754 38.7026 30.5786C39.8358 32.1813 41.9261 32.9227 43.9038 32.9227C46.3038 32.9227 48.1408 32.1813 49.1472 30.8893V32.2519H51.8991V27.0837H55.2985C58.0645 27.0837 59.8874 25.2692 60 22.7204V8.98084H59.3173L59.3314 8.97378ZM5.54604 30.1056H2.85044V20.454H5.54604C8.75543 20.454 9.44516 23.0593 9.44516 25.2621C9.44516 27.0696 8.92434 30.1056 5.54604 30.1056ZM19.2563 30.3174C16.7789 30.3174 14.7941 28.0157 14.7941 25.2127C14.7941 22.4097 16.7789 20.1292 19.2563 20.1292C21.7337 20.1292 23.6974 22.438 23.6974 25.2127C23.6974 27.9875 21.7126 30.3174 19.2563 30.3174ZM43.9179 30.3315C42.4258 30.3315 40.6733 29.5055 40.6733 27.7545H37.2457C36.6897 29.1383 35.1413 30.4233 33.4452 30.4233C30.9818 30.4233 29.0463 28.0581 29.0463 25.2127C29.0463 22.3674 30.9818 20.0233 33.4452 20.0233C35.1695 20.0233 36.4997 21.033 37.1754 22.3956H38.2592C38.59 25.0715 41.173 25.8129 43.7208 26.3141C46.4516 26.8437 47.2188 27.4226 47.2188 28.3617C47.2188 29.7667 45.5367 30.3386 43.9179 30.3386V30.3315ZM49.1613 25.6928C48.2111 24.6196 46.5079 24.1113 44.2979 23.6594C42.0387 23.1934 41.0393 22.8334 41.0393 21.8096C41.0393 20.6799 42.4258 20.108 43.9179 20.108C45.7056 20.108 46.7754 21.0683 46.7754 22.3462H49.1683V25.6999L49.1613 25.6928ZM55.2282 24.5561H51.9132V20.3481H55.2282C56.5021 20.3481 57.2692 20.9906 57.2692 22.4521C57.2692 23.9136 56.495 24.5561 55.2282 24.5561Z" fill="#101010"/>
</svg>
