<?xml version="1.0" encoding="UTF-8"?>
<svg id="Layer_1" xmlns="http://www.w3.org/2000/svg" viewBox="0 0 393.46 469.84">
  <g id="qsGubi">
    <g>
      <path d="M197.22,229.06c-15.82,0-31.65-.17-47.46.07-8.88.13-12.2-2.56-12.25-11.59-.1-20.16-.07-40.32-.07-60.48,0-10.5,0-20.99.06-31.49.05-7.77,2.35-10.33,9.99-10.37,22.14-.11,44.29.08,66.43-.05,10.49-.06,20.97-.68,31.45-.85,8.92-.15,11.83,3.1,11.54,12.11-.31,9.32-.68,18.64-.7,27.96-.04,20.98.1,41.96.23,62.94.04,7.24-3.51,11.11-10.73,11.14-16.16.05-32.32.02-48.48.02,0,.2,0,.4,0,.59ZM180.43,171.82c-.1,9.78,7.01,18.93,15.06,19.39,10.76.6,18.15-8.68,16.69-20.96-1.07-9.01-8.55-15.59-17.28-15.2-7.99.35-14.37,7.75-14.46,16.78Z"/>
      <path d="M66.76,440.58c4.56,3.71,8.93,7.27,13.3,10.83-24.43,27.04-53.4,20.76-68.58,4-19.56-21.59-11.62-50.21,5.12-62.62,21.01-15.58,49.79-12.19,62.22,7.01-4.04,3.67-8,7.26-11.95,10.85-14.79-15.94-32.91-11.65-41.31-2.9-9.78,10.18-9.9,26.32-.06,35.9,9.8,9.53,27.7,12.47,41.25-3.05Z"/>
      <path d="M378.8,440.96c4.79,3.57,9.27,6.9,13.73,10.22-15.69,17.76-34.62,22.6-54.82,13.91-15.71-6.77-26.81-26.37-25.21-44.52,1.63-18.47,15.67-32.82,37.04-37.84,14.6-3.43,34.04,5.09,41.92,18.13-3.95,3.19-7.86,6.35-12.05,9.74-6.34-6.44-14.19-11.73-24.35-10.95-7.89.6-14.63,4.32-19.68,10.56-8.15,10.08-5.81,26.66,4.96,35.34,11.37,9.16,29.29,7.96,38.45-4.58Z"/>
      <path d="M345.3,293.88c13.32-11.08,26.87-7.29,35.65,1.57,9.07,9.16,8.74,24.26-.58,35.96-7,8.78-20.04,10.7-30.81,4.55-11.22-6.41-14.86-19.2-9.06-33.83-12.76-12.06-25.79-24.33-38.75-36.66-11.2-10.66-22.26-21.49-33.54-32.06-3.15-2.95-1.21-4.96.53-7.19,2.03-2.6,4.07-2.18,6.23.01,5.14,5.22,10.27,10.45,15.56,15.51,18.14,17.34,36.34,34.61,54.77,52.15ZM362.79,325.37c6.62.03,11.72-4.99,11.68-11.47-.06-8.05-5.31-13.74-12.6-13.65-5.69.07-11.27,6.69-11.39,13.5-.11,6.2,5.6,11.59,12.31,11.62Z"/>
      <path d="M123.85,123.67c-24.36-24.33-48.13-48.05-71.92-71.81-3.42,1.57-7.52,4.26-12.02,5.37-12.94,3.18-23.83-2.05-28.62-13.04-4.8-11.02-1.1-25.42,8.33-32.39,9.38-6.93,22.95-6.06,32.12,2.3,7.7,7.02,10.62,15.58,6.85,25.66-1.19,3.19-.21,4.71,2.18,6.98,8.91,8.5,17.3,17.55,26.03,26.23,10.98,10.92,22.11,21.68,33.19,32.51.59.58,1.25,1.1,1.88,1.65q7.14,6.12,1.98,16.53ZM46.55,31.72c.05-7.38-4.56-11.48-12.92-11.48-6.03,0-11.05,5.49-11.17,12.21-.12,6.86,5.28,12.23,12.27,12.21,7.06-.02,11.77-5.17,11.82-12.94Z"/>
      <path d="M54.04,294.54c6.7-12.05,16.68-21.41,26.36-30.89,14.01-13.72,28.52-26.93,42.81-40.35,4.4,3.57,4.6,6.91.87,10.64-19.62,19.63-39.19,39.32-58.88,58.88-2.25,2.23-5.16,3.78-8.13,5.91,4.22,7.06,5.04,15.47,1.88,23.99-2.33,6.29-6.88,10.96-12.75,14.18-11.15,6.12-24.22,3-31.79-7.46-7.94-10.96-6.2-26.41,4.11-36.24,7.32-6.98,23.22-9.99,35.51,1.34ZM34.82,325.29c5.77,1.27,12.64-5.73,12.47-10.81-.28-8.36-5.06-13.97-12.79-14.2-6.35-.19-12.05,6.13-12.02,13.32.02,6.35,5.59,11.62,12.34,11.69Z"/>
      <path d="M270.47,122.37c-.88-3.12-1.06-5.02-1.92-6.51-1.81-3.14-.43-5.14,1.75-7.27,17.25-16.89,34.44-33.83,51.67-50.74,3.92-3.85,7.75-7.8,11.92-11.36,2.38-2.03,3.07-3.86,2.05-6.87-3.91-11.48,5.29-25.15,12.91-29.44,9.48-5.34,20.74-3.92,29.44,3.94,8.85,8,10.06,24.23,2.55,34.32-7.91,10.63-21.84,13.52-32.85,6.8-6.72-4.1-6.75-4.13-12.54,1.49-17.41,16.94-34.86,33.83-52.14,50.91-4.34,4.29-8.06,9.19-12.85,14.72ZM360.76,20.24c-7.17,0-11.94,5.33-12.49,12.68-.51,6.73,7.52,12.41,13.13,12.35,6.01-.06,11.04-5.07,11.08-11.15.05-8.2-4.75-13.89-11.71-13.88Z"/>
      <path d="M187.4,450.12c0,5.44.21,10.09-.15,14.7-.09,1.17-1.97,3.15-3.05,3.16-18.09.2-36.19.14-54.78.14v-84.48h16.56v66.47h41.41Z"/>
      <path d="M262.27,468.21c-5.58.41-11.34.83-17.98,1.31v-84.31c5.39,0,11.12-.1,16.84.11.8.03,2.22,1.6,2.21,2.46-.06,26.41-.26,52.83-.47,79.24,0,.29-.29.58-.61,1.19Z"/>
      <path d="M101.18,303.26c11.92-4.94,24.78-.68,29.33,9.13,3.37,7.27,1.93,15.68-3.74,21.72-5.38,5.74-14.09,8.01-21,5.47-7.77-2.85-12.9-9.85-13.08-18.31-.06-2.79-.28-6.21,1.13-8.28,3.89-5.71,1.74-11.23.4-16.71-1.3-5.3.06-9.49,3.69-13.2,10-10.24,20.02-20.46,30.06-30.66.91-.93,2.09-2.28,3.12-2.26,2.14.05,4.53.49,6.27,1.61.69.44.57,3.6-.26,4.7-2.89,3.82-6.06,7.48-9.5,10.81-6.45,6.23-13.22,12.13-19.74,18.29-4.93,4.65-5.61,10.98-6.69,17.69ZM111.84,328.79c4.59.12,8.86-4.1,8.92-8.84.06-4.17-3.56-7.3-8.76-7.56-4.32-.22-7.95,3.54-7.99,8.28-.03,4.04,3.79,8.01,7.83,8.12Z"/>
      <path d="M346.83,98.39c.73-2.07,1.32-3.77,1.91-5.46,5.94-16.98,21.05-15.17,30.2-7.33,7.6,6.52,8.66,18.02,2.53,26.1-6.82,8.99-17.84,11.71-25.71,5.67-3.14-2.4-4.91-6.53-7.6-9.61-1.07-1.22-2.95-2.46-4.45-2.44-6.47.1-12.93.73-19.4,1.01-2.64.12-5.09-.45-5.29-3.86-.2-3.5,1.9-4.73,4.96-4.77,4.64-.07,9.29-.08,13.94.04,2.96.07,5.91.42,8.92.65ZM374.33,99.51c-.13-4.03-4.05-7.6-8.36-7.61-3.93,0-7.55,4.03-7.49,8.34.06,3.88,3.82,7.99,7.35,8.01,4.31.02,8.63-4.42,8.5-8.74Z"/>
      <path d="M63.52,169.69c-18.48,0-36.96-.04-55.44.04-3.48.02-6.22-1.08-6.39-4.7-.2-4.13,2.64-5.78,6.52-5.75,13.65.12,27.31.37,40.96.37,23.48,0,46.96-.21,70.44-.24,5.96,0,7.65,2.41,4.72,7.2-.88,1.43-3.83,2.2-5.85,2.22-18.32.17-36.64.1-54.96.1,0,.26,0,.51,0,.77Z"/>
      <path d="M364.6,264.4c-7.75-.33-12.86-6.1-16.53-13.3-1.27-2.49-2.46-3.43-5.1-3.37-6.15.15-12.3.28-18.44,0-1.68-.08-4.41-1.36-4.71-2.58-.73-2.9,1.36-4.7,4.33-4.69,6.31.02,12.64.02,18.93.5,3.36.26,5.36-.07,6.86-3.65,2.75-6.56,7.23-11.73,15.07-11.95,7.94-.22,13.93,3.5,18.28,10.07,3.85,5.83,4.2,11.92.81,17.91-3.95,6.98-9.97,11-19.49,11.06ZM374.51,245.28c.09-3.93-3.47-7.82-7.32-8.01-3.6-.17-7.73,4.26-7.7,8.26.03,3.96,2.86,6.66,7.03,6.71,4.63.05,7.9-2.8,7.99-6.96Z"/>
      <path d="M329.9,191.7c-18.64,0-37.29-.03-55.93.03-3.29.01-6.31-.37-6.19-4.48.12-3.89,2.65-5.18,6.44-5.17,36.96.13,73.91.15,110.87.22,1.16,0,2.62-.19,3.4.41,1.52,1.17,3.93,3.2,3.64,4.23-.47,1.71-2.68,3.97-4.34,4.12-5.61.52-11.3.22-16.96.23-13.65,0-27.29,0-40.94,0,0,.13,0,.27,0,.4Z"/>
      <path d="M329.59,169.8c-18.99,0-37.97.11-56.95-.18-1.74-.03-4.5-2.37-4.94-4.1-.85-3.33,1.4-5.71,4.87-6.16,2.12-.28,4.32.08,6.49.08,35.48-.04,70.96-.13,106.44-.08,2.15,0,4.55.77,6.33,1.95.74.49.77,3.48,0,4.46-1.02,1.3-3.12,2.41-4.78,2.44-16.16.32-32.32.4-48.47.53-3,.03-5.99,0-8.99,0,0,.35,0,.71,0,1.06Z"/>
      <path d="M124.06,183.08c.83,8.22.15,8.68-7.14,8.65-25.47-.08-50.94.06-76.4.12-10.48.03-20.97-.06-31.45.21-3.59.09-6.47-.06-6.59-4.48-.12-4.52,2.78-5.4,6.61-5.37,12.99.11,25.97.09,38.96.14,23.14.09,46.28.17,69.43.3,2.14.01,4.27.27,6.59.43Z"/>
      <path d="M330.96,205.08c18.14,0,36.27,0,54.41,0,1.33,0,3.05-.41,3.9.25,1.63,1.27,4.06,3.45,3.78,4.75-.37,1.74-2.98,4.27-4.65,4.28-34.42.18-68.85.03-103.27,0-2.99,0-5.99.19-8.95.57-3.77.49-7.24-.31-7.44-4.42-.19-3.9,2.8-5.32,6.82-5.28,18.46.16,36.93.07,55.39.07,0-.07,0-.15,0-.22Z"/>
      <path d="M332.43,137.23c18.8,0,37.59-.01,56.39.02,2.04,0,4.77-.6,4.64,2.84-.11,2.85-1.08,5.25-4.57,5.37-1.83.06-3.65.2-5.48.21-31.61.02-63.21-.01-94.82.04-4.99,0-9.98.29-14.96.62-2.96.19-6.12-.41-5.81-3.58.21-2.23,2.85-4.46,4.85-6.17.89-.76,2.88-.3,4.37-.3,18.47-.01,36.93,0,55.4,0,0,.32,0,.64,0,.96Z"/>
      <path d="M124.18,205.26c.74,7.59-.29,8.9-7.22,8.92-32.15.12-64.29.13-96.44.27-4.32.02-8.65.84-12.94.66-1.72-.07-4.82-1.95-4.76-2.82.15-2.11,1.41-4.53,2.98-6.02,1.08-1.03,3.44-.96,5.23-.96,34.15-.06,68.29-.05,102.44-.06,3.46,0,6.92,0,10.72,0Z"/>
      <path d="M124.16,137.26q1.11,8.46-6.6,8.42c-28.79-.09-57.58-.24-86.37-.2-7.81.01-15.63.57-23.44.95-3.1.15-6.03-.22-6.18-3.99-.16-3.91,2.27-5.35,6.11-5.35,36.6-.05,73.2-.2,109.8-.29,2.15,0,4.3.29,6.68.46Z"/>
      <path d="M110.48,39.96c-10.7-.34-19.32-9.06-18.91-19.14C92.01,9.87,101.47-.2,111.1,0c10.34.22,20.15,9.93,19.92,19.71-.26,10.92-10.06,20.58-20.54,20.24ZM110.62,27.41c5.23.04,8.86-2.92,8.86-7.24,0-4.86-3.45-8.71-7.76-8.64-3.99.06-8.07,4.41-8.15,8.67-.08,4.23,2.79,7.17,7.04,7.21Z"/>
      <path d="M283.47.24c10.73,0,19.93,9.84,19.95,21.32.02,10.94-7.61,18.32-18.83,18.2-10.48-.11-20.17-9.87-20.1-20.23.07-9.9,9.31-19.3,18.98-19.3ZM283.99,27.04c4.11-.05,8.26-3.19,8.36-6.34.12-3.94-4.2-8.71-7.98-8.81-4.08-.11-8.13,4.07-8.14,8.39-.01,3.5,3.77,6.8,7.76,6.75Z"/>
      <path d="M52.05,99.66c2.42.19,5,.39,7.59.6-7.07-.11-8.95,5.04-11.6,10.11-4.76,9.1-10.49,12-18.31,10.54-8.48-1.58-14.47-7.86-16.13-16.9-1.49-8.13,4.64-18.87,12.44-21.79,7.55-2.82,16.63.74,21.32,8.52,1.71,2.83,3.09,5.85,4.69,8.91ZM40.07,100.6c.18-3.37-3.32-7.16-6.75-7.32-4.24-.2-8.75,3.47-8.77,7.14-.02,3.44,4.43,8.39,7.8,8.68,3.2.27,7.51-4.47,7.72-8.5Z"/>
      <path d="M302.5,319.81c-.05,10.74-9.16,20.62-18.91,20.52-10.7-.11-19.22-9.01-19.15-20.01.06-9.54,9.39-19.01,18.75-19.03,10.58-.03,19.37,8.4,19.31,18.52ZM283.97,328.47c3.64,0,7.51-4.12,7.45-7.94-.06-3.83-3.63-7.52-7.21-7.47-3.95.05-7.85,4.18-7.74,8.19.11,3.7,3.76,7.22,7.5,7.22Z"/>
      <path d="M31.6,264.56c-9.13-.17-19.75-10.21-19.6-18.53.18-9.54,10.12-20.78,18.33-20.74,9.18.05,21.15,11.03,21.13,19.38-.03,11.18-8.93,20.09-19.86,19.89ZM31.71,253.26c3.4.07,7.7-4.15,7.8-7.66.11-3.69-4.17-8.37-7.68-8.41-3.51-.03-7.16,3.34-7.34,6.77-.22,4.33,3.57,9.21,7.22,9.29Z"/>
      <path d="M237.97,95.72c0-24.98.03-49.96-.07-74.94,0-1.7-.92-3.45-1.61-5.09-2.1-5.01.19-10.9,5.34-11.94,1.97-.4,5.36.81,6.36,2.38,1.27,2.01,1.2,5.18.92,7.77-.41,3.66-2.21,7.24-2.26,10.86-.23,17.49-.18,34.99.02,52.48.07,6.14.82,12.29,1.36,18.42.41,4.71-1.33,7.58-4.88,7.74-3.37.15-6.18-3.44-5.17-7.69Z"/>
      <path d="M247.65,289.56c0,14.14.17,28.28-.16,42.41-.06,2.41-2.05,4.93-3.61,7.06-.38.51-3.35.14-3.82-.63-1.33-2.19-2.5-4.73-2.77-7.23-.31-2.92.62-5.94.62-8.92-.01-22.29-.11-44.59-.24-66.88,0-1.63-.47-3.25-.7-4.88-.18-1.3-.51-2.6-.47-3.9.13-3.91,2.11-6.26,6.16-6.27,4.2,0,5.09,2.69,5.07,6.34-.09,14.3-.04,28.61-.04,42.91-.01,0-.03,0-.04,0Z"/>
      <path d="M215.61,97.83c0-25.44.05-50.88-.08-76.32-.01-2.51-.9-5.11-1.82-7.5-1.78-4.66,1.13-7.13,4.09-9.65,2.75-2.33,5.55-.87,6.94,1.19,1.3,1.93,1.56,4.93,1.38,7.39-.4,5.56-1.92,11.08-1.96,16.63-.14,18.48.13,36.95.35,55.43.05,4.15.73,8.29.77,12.44.03,3.6-1.67,6.02-5.68,6.09-3.92.07-5.31-2.09-3.99-5.7Z"/>
      <path d="M148.58,58.53c0-12.48.04-24.96-.05-37.44-.01-1.51-.68-3.05-1.18-4.53-.42-1.24-1.71-2.57-1.47-3.59.71-3.02,1.36-6.48,3.31-8.61,1.05-1.15,5.16-.75,7.05.36,3.28,1.93,3.81,5.34,2.64,9.19-1.13,3.7-2.18,7.62-2.17,11.43.04,16.8.42,33.61.8,50.41.16,6.97.67,13.94.95,20.91.14,3.43-.55,6.56-4.78,6.7-4.26.14-5.18-2.98-5.2-6.4-.06-12.81-.03-25.62-.03-38.43.04,0,.09,0,.13,0Z"/>
      <path d="M193.42,97.2c0-25.29.04-50.58-.08-75.86-.01-2.22-.77-4.61-1.77-6.63-1.96-3.96-.21-6.78,2.46-9.22,2.14-1.96,4.72-2.5,7.16-.26,2.78,2.55,3.92,5.31,2.58,9.3-1.17,3.5-1.69,7.36-1.7,11.07-.02,18.31.18,36.62.43,54.93.07,5.3.48,10.59.85,15.88.27,3.91-1.92,7.05-5.3,7.02-4.04-.04-5.49-2.5-4.64-6.22Z"/>
      <path d="M180.75,289.56c0,14.31-.05,28.63.03,42.94.02,3.8-1.82,6.08-5.28,6.66-3.02.5-5.73-3.37-5.64-6.78.46-17.13.93-34.26,1.09-51.39.11-11.3-.3-22.61-.47-33.92-.05-3.68.74-6.84,5.3-6.77,4.99.07,4.96,3.38,4.9,7.29-.22,13.99-.09,27.98-.09,41.97.05,0,.1,0,.15,0Z"/>
      <path d="M193.41,332.65c0-25.73.03-51.45-.04-77.18,0-2.96-.83-5.93-.83-8.89,0-4.09,3.14-7.29,6.35-6.6,3.99.86,4.59,3.74,3.87,7.28-.26,1.29-.27,2.64-.27,3.97-.04,23.96-.1,47.91-.04,71.87,0,2.77,1.05,5.56.92,8.31-.1,2.23-.68,4.94-2.09,6.45-1.08,1.16-4.31,1.69-5.66.91-1.8-1.05-2.71-3.64-4-5.56.6-.19,1.2-.37,1.8-.56Z"/>
      <path d="M171.47,96.67c0-25.43.02-50.86-.05-76.3,0-1.42-.7-2.83-1.02-4.25-.36-1.59-.92-3.2-.94-4.81-.05-4.14,3.02-7.75,6.22-7.61,3.58.15,7.72,5.02,6.34,8.67-5.42,14.35-.91,28.96-1.59,43.41-.52,11.12-.04,22.29.07,33.44.02,2.31.75,4.65.51,6.9-.25,2.31-.81,4.89-2.16,6.66-.66.87-3.9.87-5.07.02-1.77-1.29-2.76-3.66-4.09-5.58.59-.19,1.18-.37,1.77-.56Z"/>
      <path d="M157.54,245.55c0,26.24-.03,52.48.03,78.73,0,2.98,1.27,6.17.53,8.88-.72,2.62-2.83,5.46-5.14,6.85-1.86,1.12-5.53-3.82-5.48-6.93.4-21.93.82-43.87,1.13-65.8.1-6.81-.37-13.64-.09-20.43.08-1.97,1.42-4.42,2.98-5.62,1.24-.96,3.96-.96,5.52-.26,1.22.54,1.67,2.8,2.46,4.3-.65.1-1.3.19-1.95.29Z"/>
      <path d="M224.53,288.82c0,13.99.18,27.98-.15,41.96-.07,2.83-1.92,5.67-3.26,8.35-.17.33-2.54.06-3.45-.57-3.1-2.15-3.73-5.12-2.72-8.79.6-2.19.5-4.62.5-6.94.03-22.48.04-44.96-.01-67.45,0-2.3-.83-4.64-.57-6.88.27-2.41.86-5.13,2.3-6.93.86-1.09,4.47-1.59,5.29-.78,1.37,1.36,2.04,3.97,2.07,6.06.17,13.99.09,27.97.09,41.96-.03,0-.05,0-.08,0Z"/>
      <path d="M303.01,304.99c-13.57-14.68-27.06-29.27-40.54-43.88-.9-.97-1.98-1.99-2.36-3.18-.52-1.63-1.26-4.18-.48-5.02,1.87-2.03,4.57-2.79,6.95-.17,3.7,4.07,7.23,8.29,11.12,12.16,7.78,7.76,15.75,15.33,23.64,22.97,5.27,5.11,5.66,11.43,1.66,17.12Z"/>
      <path d="M92.86,43.63c6.68,6.65,13.17,13.51,20.09,19.9,6.83,6.31,14.12,12.12,21.17,18.19,2.76,2.38,6.19,4.8,3.96,9.06-1.43,2.72-6.77,1.86-10.5-1.61-10.1-9.39-20.2-18.79-30.1-28.4-2.47-2.39-4.66-5.34-6.11-8.43-1.07-2.29-.72-5.25-1.01-7.91.83-.27,1.67-.53,2.5-.8Z"/>
      <path d="M256.11,88.7c1.28-1.86,2.15-3.72,3.53-5.04,11.69-11.1,23.47-22.12,35.26-33.12,1.09-1.02,2.3-2.02,3.63-2.63,1.46-.67,3.14-.88,4.72-1.29.02,2.02.78,4.49-.11,5.95-1.7,2.79-4.26,5.08-6.62,7.43-9.21,9.15-18.4,18.32-27.78,27.31-3.35,3.21-7.26,5.47-12.63,1.4Z"/>
      <path d="M254.71,356.21c5.9.05,9.71,4.29,9.68,10.78-.02,5.26-5.31,10.27-10.8,10.24-5.53-.03-11.13-5.17-11.02-10.13.12-5.38,6.32-10.94,12.14-10.89Z"/>
      <path d="M52.97,244.62c5.2-4.58,11.65-4.66,14.8,0h-14.8Z"/>
    </g>
  </g>
</svg>